<?xml version="1.0" standalone="no"?>
<!DOCTYPE svg PUBLIC "-//W3C//DTD SVG 1.1//EN" "http://www.w3.org/Graphics/SVG/1.1/DTD/svg11.dtd" >
<svg xmlns="http://www.w3.org/2000/svg">
<metadata></metadata>
<defs>
<font id="webfontregular" horiz-adv-x="1196" >
<font-face units-per-em="2048" ascent="1638" descent="-410" />
<missing-glyph horiz-adv-x="516" />
<glyph unicode="&#xfb01;" horiz-adv-x="1101" d="M102 913v119h164v33q0 177 116 281t286 104q129 0 225 -59l-27 -117q-100 57 -214 57q-114 -1 -186 -69t-73 -177v-53h541v-1032h-127v913h-414v-913h-127v913h-164z" />
<glyph unicode="&#xfb02;" horiz-adv-x="1189" d="M102 913v119h160v66q0 352 320 352h428v-1450h-127v1331h-312q-182 0 -182 -213v-86h250v-119h-250v-913h-127v913h-160z" />
<glyph horiz-adv-x="0" />
<glyph horiz-adv-x="0" />
<glyph horiz-adv-x="682" />
<glyph unicode="&#xd;" horiz-adv-x="681" />
<glyph unicode=" "  horiz-adv-x="516" />
<glyph unicode="&#x09;" horiz-adv-x="516" />
<glyph unicode="&#xa0;" horiz-adv-x="516" />
<glyph unicode="!" horiz-adv-x="665" d="M225 109q0 49 32 81t81 31q49 0 81 -32q32 -33 32 -81t-32 -80t-81 -32t-82 31q-31 33 -31 82zM252 1434h172l-45 -1057h-82z" />
<glyph unicode="&#x22;" horiz-adv-x="856" d="M186 1450h183l-43 -467h-97zM487 1450h183l-43 -467h-97z" />
<glyph unicode="#" horiz-adv-x="1468" d="M158 438v111h264l67 336h-249v110h274l88 439h115l-88 -439h325l90 439h115l-90 -439h242v-110h-264l-68 -336h250v-111h-275l-88 -438h-114l88 438h-326l-90 -438h-115l90 438h-241zM537 549h327l68 336h-328z" />
<glyph unicode="$" horiz-adv-x="1036" d="M86 371l117 69q47 -164 120 -246t199 -83t198 75q73 76 73 213q0 174 -220 277q-195 90 -266 147q-135 113 -134 265t84 247q83 96 206 111v172h123v-174q98 -12 156 -62t114 -153l-111 -70q-86 164 -237 164q-90 0 -144 -61t-55 -148q0 -166 221 -268q74 -33 178 -84 t164 -142q61 -91 62 -217q0 -171 -96 -285t-252 -134v-168h-123v168q-147 18 -246 121q-98 103 -131 266z" />
<glyph unicode="%" horiz-adv-x="1728" d="M127 1121q0 136 90 233q91 96 231 96t231 -96t91 -234t-90 -231q-90 -94 -230 -94t-233 94q-90 96 -90 232zM238 1122q0 -96 57 -156t153 -60t154 60q57 60 57 156t-57 156q-58 60 -154 61q-96 0 -153 -60q-57 -61 -57 -157zM266 18l1110 1465l86 -68l-1110 -1464z M958 310q0 136 91 233q92 96 231 96t230 -95q92 -96 92 -234t-93 -232q-88 -94 -228 -94t-232 94q-91 96 -91 232zM1069 312q0 -96 57 -157q58 -61 154 -61t154 60t57 157q0 97 -57 157t-154 60t-154 -60t-57 -156z" />
<glyph unicode="&#x26;" horiz-adv-x="1345" d="M162 397q0 152 79 265t205 178q-135 184 -135 314t88 213q87 83 225 83t224 -79t86 -208q0 -209 -303 -364l334 -428q51 98 108 262l88 -103q-57 -158 -117 -262l211 -268h-147l-133 168q-151 -184 -395 -184q-190 0 -305 110q-114 111 -113 303zM289 393q0 -131 81 -211 t210 -80q195 0 317 164l-377 482q-231 -127 -231 -355zM438 1138q0 -95 119 -247q133 66 192 125q58 59 58 139t-49 132t-136 52q-88 0 -136 -53t-48 -148z" />
<glyph unicode="'" horiz-adv-x="555" d="M186 1450h183l-43 -467h-97z" />
<glyph unicode="(" horiz-adv-x="575" d="M145 717q1 459 224 819h135q-217 -352 -217 -819t217 -819h-135q-223 360 -224 819z" />
<glyph unicode=")" horiz-adv-x="575" d="M72 -102q217 352 217 819t-217 819h135q223 -360 223 -819t-223 -819h-135z" />
<glyph unicode="*" horiz-adv-x="1007" d="M125 1135l37 110l284 -94v299h115v-299l285 94l37 -110l-285 -97l176 -237l-94 -70l-176 240l-176 -240l-95 70l177 237z" />
<glyph unicode="+" horiz-adv-x="1116" d="M141 590v115h363v360h114v-360h363v-115h-363v-363h-114v363h-363z" />
<glyph unicode="," horiz-adv-x="571" d="M135 -158l103 338h188l-197 -338h-94z" />
<glyph unicode="-" horiz-adv-x="964" d="M145 592v115h674v-115h-674z" />
<glyph unicode="." horiz-adv-x="581" d="M186 99q0 46 30 76t75 30t75 -30t30 -75q0 -44 -30 -74t-75 -30t-75 28t-30 75z" />
<glyph unicode="/" horiz-adv-x="1079" d="M35 -102l893 1638h135l-893 -1638h-135z" />
<glyph unicode="0" horiz-adv-x="1261" d="M137 718q0 338 125 535t368 197q242 0 368 -199t126 -535t-126 -534t-368 -198t-368 196q-125 200 -125 538zM268 716q0 -278 96 -448t267 -170q170 0 266 170t96 448t-96 449q-96 170 -266 170t-266 -170q-97 -171 -97 -449z" />
<glyph unicode="1" horiz-adv-x="708" d="M145 1067v156l332 211h33v-1434h-127v1217z" />
<glyph unicode="2" horiz-adv-x="1165" d="M154 0v47l522 676q100 127 130 193t30 172t-68 177t-182 71t-189 -81q-76 -80 -94 -208l-119 22q14 164 122 272q108 109 280 109q170 0 275 -102t105 -272t-173 -394l-439 -567h647v-115h-847z" />
<glyph unicode="3" horiz-adv-x="1173" d="M129 393l127 19q16 -146 98 -230t226 -84t227 90q84 90 84 253t-84 251t-238 88q-70 0 -127 -37l-61 80l371 496h-551v115h749v-35l-387 -514q18 6 53 6q166 0 286 -122t120 -329t-123 -331q-119 -125 -315 -125t-315 110q-120 110 -140 299z" />
<glyph unicode="4" horiz-adv-x="1191" d="M121 330v35l604 1069h156v-990h190v-114h-190v-330h-127v330h-633zM301 444h453v809z" />
<glyph unicode="5" horiz-adv-x="1153" d="M147 377l125 22q39 -301 295 -301q152 0 232 98t80 274q0 177 -81 271t-231 95q-182 0 -295 -193l-90 21l74 770h670v-115h-555l-52 -488q111 119 261 119q198 0 314 -130t116 -350t-120 -353t-308 -133t-300 100q-110 100 -135 293z" />
<glyph unicode="6" horiz-adv-x="1175" d="M160 451q0 131 76 264l423 735h134l-320 -567q47 35 133 35q197 0 322 -136q125 -132 125 -332t-126 -333t-321 -133t-321 133q-125 133 -125 334zM291 454q0 -157 88 -256q88 -100 225 -100t227 100q91 100 91 257q0 156 -87 252t-229 96t-228 -96q-87 -96 -87 -253z " />
<glyph unicode="7" horiz-adv-x="978" d="M121 1319v115h794v-41l-567 -1393h-133l549 1319h-643z" />
<glyph unicode="8" horiz-adv-x="1183" d="M162 401q0 129 64 232q65 102 165 139q-82 43 -131 123t-49 182q0 169 105 271q106 102 276 102t274 -104q107 -101 107 -269q0 -102 -49 -182t-131 -123q101 -37 165 -139t64 -232q0 -197 -124 -307t-306 -110t-307 110q-123 111 -123 307zM293 402q0 -140 81 -222 t218 -82t218 81t81 221t-81 222t-218 83q-137 0 -218 -82q-81 -81 -81 -221zM338 1076q0 -118 70 -188t184 -69q114 0 184 70q70 69 70 187t-71 189t-183 71t-184 -72q-70 -70 -70 -188z" />
<glyph unicode="9" horiz-adv-x="1161" d="M145 983q0 201 125 334t321 133q195 0 321 -133t126 -334q0 -131 -75 -264l-424 -735h-133l319 567q-47 -35 -133 -35q-195 0 -322 133q-125 133 -125 334zM276 981q0 -158 88 -254t228 -96q141 0 228 96t87 252t-89 256t-227 100t-226 -98q-89 -98 -89 -256z" />
<glyph unicode=":" horiz-adv-x="610" d="M201 110q0 58 65 86q66 28 113 -22q49 -47 21 -113t-95 -65q-47 0 -75 28t-29 86zM201 860q-1 58 65 86t114 -21q48 -48 20 -114t-85 -66q-114 -1 -114 115z" />
<glyph unicode=";" horiz-adv-x="610" d="M125 -158l102 338h189l-197 -338h-94zM201 860q-1 58 65 86t114 -21q48 -48 20 -114t-85 -66q-114 -1 -114 115z" />
<glyph unicode="&#x3c;" horiz-adv-x="925" d="M115 565v140l684 368v-127l-580 -311l580 -311v-127z" />
<glyph unicode="=" horiz-adv-x="1210" d="M209 408v114h792v-114h-792zM209 748v114h792v-114h-792z" />
<glyph unicode="&#x3e;" horiz-adv-x="925" d="M127 197v127l580 311l-580 311v127l684 -368v-140z" />
<glyph unicode="?" horiz-adv-x="897" d="M102 1145q25 145 122 225q96 80 244 80t238 -80t89 -207q0 -160 -179 -254l-147 -80q-73 -39 -103 -79t-30 -100t33 -94t90 -34q119 0 162 135l102 -39q-59 -215 -260 -215q-111 0 -183 66t-71 182q0 164 180 262l168 93q107 57 107 145t-52 134t-149 46 q-180 0 -232 -209zM354 109q0 49 32 81t81 31q49 0 81 -32q32 -33 32 -81t-32 -80t-81 -32t-82 31q-31 33 -31 82z" />
<glyph unicode="@" horiz-adv-x="1765" d="M104 616q0 203 68 371t184 273q236 210 562 210t533 -194q206 -194 206 -555q0 -242 -96 -371t-254 -129q-84 0 -144 45q-59 45 -78 115q-104 -160 -272 -160q-168 -1 -259 103t-91 290t119 314q119 129 295 129t239 -129l29 114h110l-49 -542l-2 -26l-2 -15v-6 q0 -117 113 -117q100 0 154 102t55 283q0 301 -163 468t-440 167t-476 -192q-95 -91 -151 -233t-56 -315q0 -324 186 -509t477 -185q137 0 252 32t252 109l45 -102q-158 -84 -279 -119t-270 -35q-348 1 -572 219t-225 590zM598 610q0 -274 233 -274q115 0 188 102t73 234 t-58 200q-58 70 -172 70t-188 -97q-76 -97 -76 -235z" />
<glyph unicode="A" d="M20 0l519 1434h118l519 -1434h-140l-143 408h-590l-143 -408h-140zM346 535h504l-252 714z" />
<glyph unicode="B" horiz-adv-x="1261" d="M207 0v1434h461q188 0 294 -98q105 -97 105 -268q0 -93 -52 -172t-128 -112q254 -94 254 -370q0 -188 -119 -301t-322 -113h-493zM342 127h332q164 0 245 68q81 67 81 219t-81 219t-245 67h-332v-573zM342 827h326q260 0 260 240t-260 240h-326v-480z" />
<glyph unicode="C" horiz-adv-x="1392" d="M121 717q0 176 52 320t144 233q186 180 437 180q201 0 343 -109t197 -301l-133 -39q-41 156 -145 239t-262 83q-220 0 -356 -160q-136 -161 -136 -447t135 -446q134 -159 354 -159h3q158 1 262 83t145 238l133 -39q-55 -193 -197 -301t-343 -108q-262 0 -449 190 q-184 190 -184 543z" />
<glyph unicode="D" horiz-adv-x="1355" d="M207 0v1434h377q283 0 467 -195t184 -525t-184 -522t-467 -192h-377zM342 127h244h3q215 0 359 149q145 150 146 441q0 291 -148 440q-143 150 -360 150h-244v-1180z" />
<glyph unicode="E" horiz-adv-x="1163" d="M207 0v1434h809v-127h-674v-480h551v-127h-551v-573h694v-127h-829z" />
<glyph unicode="F" horiz-adv-x="1153" d="M207 0v1434h823v-127h-688v-496h565v-127h-565v-684h-135z" />
<glyph unicode="G" horiz-adv-x="1449" d="M121 717q0 349 184 541t445 192q209 0 354 -111t199 -307l-134 -37q-49 158 -156 243q-108 85 -263 85q-219 0 -355 -160q-133 -163 -133 -447t133 -446q135 -160 347 -160t322 124t112 362h-332v127h467v-723h-119l-16 221q-57 -111 -171 -174t-255 -63q-260 0 -445 192 q-184 193 -184 541z" />
<glyph unicode="H" horiz-adv-x="1413" d="M207 0v1434h135v-609h729v609h135v-1434h-135v698h-729v-698h-135z" />
<glyph unicode="I" horiz-adv-x="548" d="M207 0v1434h135v-1434h-135z" />
<glyph unicode="J" horiz-adv-x="1017" d="M31 350l139 31q39 -270 266 -270q123 0 196 76t73 219v1028h135v-1014q0 -205 -119 -321q-119 -115 -293 -115t-275 106t-122 260z" />
<glyph unicode="K" horiz-adv-x="1157" d="M207 0v1434h135v-613l559 613h172l-588 -643l639 -791h-166l-616 760v-760h-135z" />
<glyph unicode="L" horiz-adv-x="1054" d="M207 0v1434h135v-1307h672v-127h-807z" />
<glyph unicode="M" horiz-adv-x="1601" d="M207 0v1434h168l426 -1080l426 1080h168v-1434h-135v1171l-416 -1040h-86l-416 1040v-1171h-135z" />
<glyph unicode="N" horiz-adv-x="1419" d="M207 0v1434h160l710 -1219v1219h135v-1434h-159l-711 1214v-1214h-135z" />
<glyph unicode="O" horiz-adv-x="1499" d="M121 718q0 328 183 530q182 202 446 202t444 -203q184 -199 184 -529t-183 -533q-183 -201 -445 -201t-447 200q-182 206 -182 534zM262 716q0 -290 138 -448t348 -158t350 158q139 162 139 450t-139 446q-139 159 -350 159q-210 0 -348 -158q-138 -159 -138 -449z" />
<glyph unicode="P" horiz-adv-x="1183" d="M207 0v1434h487q194 0 304 -106t110 -290t-110 -290q-109 -105 -300 -105h-4h-352v-643h-135zM342 770h354q135 0 203 71t68 197t-68 198q-68 71 -203 71h-354v-537z" />
<glyph unicode="Q" horiz-adv-x="1499" d="M121 718q0 328 183 530q182 202 446 202t444 -203q184 -197 184 -517t-161 -519l137 -135l-92 -92l-136 135q-164 -135 -376 -135q-262 0 -447 200q-182 205 -182 534zM262 716q0 -290 138 -448q137 -157 347 -157h3q165 0 286 96l-151 153l92 93l147 -150 q113 163 113 433t-139 428t-350 159q-210 0 -348 -158q-138 -159 -138 -449z" />
<glyph unicode="R" horiz-adv-x="1302" d="M207 0v1434h461q197 0 303 -92t106 -259q0 -166 -82 -257t-231 -111l446 -715h-151l-449 709h-268v-709h-135zM342 836h317q281 0 281 236q0 235 -279 235h-2h-317v-471z" />
<glyph unicode="S" horiz-adv-x="1036" d="M86 371l117 69q47 -164 120 -246t199 -83h3q124 0 195 75q73 76 73 213q0 174 -220 277q-195 90 -266 147q-134 112 -134 269q0 159 97 260q98 98 238 98q100 0 168 -32t100 -68t80 -121l-111 -70q-86 164 -237 164q-90 0 -144 -61t-55 -148q0 -166 221 -268 q74 -33 178 -84t164 -142q61 -91 62 -217q0 -190 -116 -305q-116 -114 -290 -114t-290 104t-152 283z" />
<glyph unicode="T" horiz-adv-x="1056" d="M33 1307v127h991v-127h-428v-1307h-135v1307h-428z" />
<glyph unicode="U" horiz-adv-x="1339" d="M178 459v975h135v-988q1 -147 95 -241t262 -94t262 94t94 241v988h135v-975q0 -225 -141 -350t-349 -125t-352 125q-141 125 -141 350z" />
<glyph unicode="V" horiz-adv-x="1175" d="M14 1434h140l434 -1241l434 1241h139l-502 -1434h-143z" />
<glyph unicode="W" horiz-adv-x="1841" d="M66 1434h139l325 -1225l330 1073h121l330 -1073l325 1225h140l-394 -1434h-137l-325 1073l-324 -1073h-137z" />
<glyph unicode="X" horiz-adv-x="1159" d="M43 0l467 791l-379 643h141l308 -523l307 523h141l-379 -643l467 -791h-141l-395 672l-396 -672h-141z" />
<glyph unicode="Y" horiz-adv-x="1024" d="M12 1434h158l342 -678l342 678h158l-432 -811v-623h-136v623z" />
<glyph unicode="Z" horiz-adv-x="1122" d="M98 0v66l721 1241h-696v127h876v-66l-712 -1241h727v-127h-916z" />
<glyph unicode="[" horiz-adv-x="659" d="M207 -102v1638h366v-115h-243v-1409h243v-114h-366z" />
<glyph unicode="\" horiz-adv-x="1079" d="M16 1536h136l892 -1638h-135z" />
<glyph unicode="]" horiz-adv-x="659" d="M86 12h244v1409h-244v115h367v-1638h-367v114z" />
<glyph unicode="^" horiz-adv-x="1064" d="M106 879l377 555h99l376 -555h-141l-285 436l-284 -436h-142z" />
<glyph unicode="_" horiz-adv-x="972" d="M68 0h837v-115h-837v115z" />
<glyph unicode="`" horiz-adv-x="428" d="M43 1434h190l144 -287h-101z" />
<glyph unicode="a" horiz-adv-x="1036" d="M117 303q0 160 125 246t350 86h172v45q0 250 -238 250q-188 0 -245 -193l-123 29q20 127 122 205t254 78q150 0 252 -99q105 -94 105 -266v-684h-96l-31 160q-102 -176 -326 -176q-147 0 -234 80t-87 239zM250 304q0 -99 53 -150q53 -52 160 -52t204 92t97 283v39h-168 q-170 0 -258 -56t-88 -156z" />
<glyph unicode="b" horiz-adv-x="1224" d="M197 0v1450h131v-563q55 72 145 117t176 45q217 0 339 -152t122 -383t-121 -381q-120 -149 -337 -149h-3q-96 0 -187 44t-134 107v-135h-131zM311 513q0 -183 88 -297t245 -114t245 114t88 298t-89 300t-245 116t-244 -117t-88 -300z" />
<glyph unicode="c" horiz-adv-x="1081" d="M236 891q121 158 335 158q309 0 416 -285l-115 -45q-86 211 -301 211q-160 0 -241 -119q-82 -115 -82 -294t82 -298q84 -117 241 -117q215 0 301 211l115 -45q-106 -284 -414 -284h-2q-217 0 -337 156q-119 155 -119 371q0 222 121 380z" />
<glyph unicode="d" horiz-adv-x="1224" d="M115 515q0 230 121 382q123 152 339 152q87 0 177 -45t145 -117v563h131v-1450h-131v135q-43 -63 -134 -107t-188 -44q-217 0 -339 149q-121 152 -121 382zM248 514q0 -184 88 -298t245 -114t245 114q87 113 87 294q0 188 -87 304q-88 116 -244 116t-245 -116t-89 -300z " />
<glyph unicode="e" horiz-adv-x="1130" d="M242 897q128 152 330 152q202 -1 328 -133t126 -343v-57h-778q0 -186 88 -300t237 -114q117 0 189 52t129 170l113 -56q-78 -152 -180 -218t-251 -66q-207 0 -333 150q-125 149 -125 377q0 234 127 386zM256 635h639q-18 139 -102 217q-85 78 -214 78t-213 -81t-110 -214 z" />
<glyph unicode="f" horiz-adv-x="735" d="M102 913v119h164v66q0 352 320 352q76 0 123 -27l-27 -116q-49 24 -103 24h-4q-182 0 -182 -213v-86h250v-119h-250v-913h-127v913h-164z" />
<glyph unicode="g" horiz-adv-x="1005" d="M112 -106q0 148 107 229q-82 49 -82 168q0 59 35 108t92 76q-78 95 -78 239t102 239t249 96q94 0 178 -48l184 105l59 -109l-143 -79q72 -94 72 -216q-1 -158 -101 -252t-230 -94t-212 50q-84 -37 -84 -115q0 -98 127 -98h266q145 0 227 -69t83 -202q0 -178 -113 -267 q-112 -89 -310 -89t-313 90t-115 238zM236 -86q0 -232 303 -233q143 0 222 61t79 164q0 176 -201 176h-211q-55 0 -100 6q-92 -58 -92 -174zM314 702q0 -109 62 -172q64 -63 160 -63q96 1 160 65t64 170t-64 170t-160 65q-96 0 -159 -63t-63 -172z" />
<glyph unicode="h" horiz-adv-x="1198" d="M197 0v1450h127v-643q49 115 150 178q102 63 236 63t219 -88q85 -89 85 -251v-709h-127v692q1 113 -55 175t-160 63q-148 0 -248 -134t-100 -356v-440h-127z" />
<glyph unicode="i" horiz-adv-x="573" d="M184 1329q0 45 30 75t75 30t73 -31q31 -29 31 -74t-30 -75q-31 -30 -75 -30t-75 29q-29 31 -29 76zM225 0v1032h127v-1032h-127z" />
<glyph unicode="j" horiz-adv-x="573" d="M68 -315q86 25 122 69t35 133v1145h127v-1163q0 -262 -256 -303zM184 1329q0 45 30 75t75 30t73 -31q31 -29 31 -74t-30 -75q-31 -30 -75 -30t-75 29q-29 31 -29 76z" />
<glyph unicode="k" horiz-adv-x="987" d="M197 0v1450h127v-875l432 457h159l-446 -473l483 -559h-161l-467 543v-543h-127z" />
<glyph unicode="l" horiz-adv-x="499" d="M193 0v1450h126v-1450h-126z" />
<glyph unicode="m" horiz-adv-x="1744" d="M197 0v1032h127v-215q49 109 135 170t192 62q236 0 281 -230q55 101 146 165t192 65q150 0 220 -84t71 -256v-709h-127v692q0 125 -42 181t-143 57q-131 0 -219 -131t-88 -346v-453h-127v692q0 125 -42 181t-142 57q-131 0 -219 -131t-88 -346v-453h-127z" />
<glyph unicode="n" horiz-adv-x="1179" d="M197 0v1032h127v-215q55 107 150 169t223 62t213 -89q85 -90 85 -250v-709h-127v692q0 238 -211 238q-145 0 -239 -131t-94 -346v-453h-127z" />
<glyph unicode="o" d="M115 516q0 211 133 372t350 161t350 -161t133 -372t-133 -372t-350 -161t-350 161t-133 372zM248 516q0 -168 93 -291t257 -123t257 122t93 292t-93 292t-257 122t-257 -123t-93 -291z" />
<glyph unicode="p" horiz-adv-x="1224" d="M197 -418v1450h131v-135q43 63 134 107t187 45q217 0 339 -152t122 -383t-121 -381q-120 -149 -337 -149h-3q-86 0 -176 44t-145 117v-563h-131zM311 519q0 -183 88 -300t244 -117t245 116t89 300t-88 298t-245 114t-245 -114t-88 -297z" />
<glyph unicode="q" horiz-adv-x="1224" d="M115 515q0 230 121 382q123 152 339 152q95 0 187 -44t135 -108v135h131v-1450h-131v563q-55 -73 -145 -117t-177 -44q-217 0 -339 149q-121 152 -121 382zM248 518q0 -184 89 -300t246 -116t242 117q88 115 88 299t-88 298q-89 114 -245 114t-244 -114t-88 -298z" />
<glyph unicode="r" horiz-adv-x="817" d="M197 0v1032h127v-184q96 201 303 201q67 0 155 -35l-28 -121q-68 37 -146 37q-127 0 -206 -142q-78 -140 -78 -383v-6v-399h-127z" />
<glyph unicode="s" horiz-adv-x="921" d="M111 266l112 60q41 -113 101 -168q60 -56 154 -56q96 0 144 50t48 135q0 119 -172 180q-164 66 -217 106q-98 76 -99 199q0 123 82 200t207 77q172 0 287 -160l-90 -78q-88 119 -203 119q-68 0 -110 -43t-42 -113q0 -100 172 -170q76 -31 113 -48t94 -54 q111 -72 111 -209t-86 -223q-85 -86 -231 -86t-241 78t-134 204z" />
<glyph unicode="t" horiz-adv-x="759" d="M55 913v119h183v334l131 84v-418h274v-119h-274v-641q0 -170 143 -170q78 0 129 33l35 -115q-68 -36 -184 -36t-186 78q-69 78 -68 231v620h-183z" />
<glyph unicode="u" horiz-adv-x="1179" d="M184 324v708h127v-692q0 -238 211 -238q142 0 238 132t96 346v452h127v-1032h-127v215q-55 -107 -150 -169t-204 -62q-147 0 -233 90q-85 90 -85 250z" />
<glyph unicode="v" horiz-adv-x="917" d="M41 1032h133l285 -862l284 862h134l-349 -1032h-139z" />
<glyph unicode="w" horiz-adv-x="1470" d="M80 1032h133l242 -852l217 852h127l217 -852l241 852h134l-310 -1032h-131l-215 844l-215 -844h-131z" />
<glyph unicode="x" horiz-adv-x="913" d="M39 0l348 563l-291 469h142l219 -356l219 356h141l-291 -469l348 -563h-133l-284 451l-285 -451h-133z" />
<glyph unicode="y" horiz-adv-x="925" d="M35 1032h133l307 -835l287 835h133l-512 -1450h-127l150 424z" />
<glyph unicode="z" horiz-adv-x="933" d="M115 0v61l526 852h-502v119h670v-69l-520 -844h542v-119h-716z" />
<glyph unicode="{" horiz-adv-x="649" d="M133 659v115q88 0 125 41t37 133v375q0 97 53 155t139 58h95v-115h-62q-104 0 -102 -102v-404q0 -84 -31 -129t-98 -69q69 -25 99 -70t30 -129v-403q0 -103 102 -103h62v-114h-95q-86 0 -139 58t-53 155v374q0 92 -37 133t-125 41z" />
<glyph unicode="|" horiz-adv-x="536" d="M207 -102v1638h123v-1638h-123z" />
<glyph unicode="}" horiz-adv-x="649" d="M68 12h61q104 0 102 103v403q0 84 31 129t98 70q-68 25 -98 69t-31 129v404q0 53 -24 78q-25 25 -78 24h-61v115h94q86 0 139 -57t53 -156v-375q0 -92 37 -133t125 -41v-115q-88 0 -125 -41t-37 -133v-374q0 -97 -53 -155t-139 -58h-94v114z" />
<glyph unicode="~" horiz-adv-x="1232" d="M174 655q113 160 250 160q80 0 188 -55t181 -55q109 0 184 92l82 -80q-115 -160 -250 -160q-80 0 -186 55q-107 55 -199 55t-168 -92z" />
<glyph unicode="&#xa1;" horiz-adv-x="665" d="M215 903q0 49 32 81t81 32t81 -32q31 -32 31 -81t-32 -81t-80 -32q-49 0 -82 31q-31 33 -31 82zM242 -422l45 1057h82l45 -1057h-172z" />
<glyph unicode="&#xa2;" horiz-adv-x="1122" d="M125 718q0 204 104 353q104 156 295 176v289h123v-289q252 -27 350 -282l-114 -45q-86 211 -301 210q-160 0 -242 -116t-82 -296q0 -179 82 -298q84 -117 242 -117q215 0 301 211l114 -45q-96 -252 -350 -283v-288h-123v288q-188 20 -295 174q-104 154 -104 358z" />
<glyph unicode="&#xa3;" horiz-adv-x="1085" d="M98 96q225 219 226 434q0 78 -27 156h-172v119h129q-51 129 -51 233q0 190 102 301t275 111q133 0 230 -76t148 -213l-112 -51q-50 115 -112 168t-164 53t-170 -78q-67 -78 -66 -217q0 -86 47 -231h336v-119h-299q20 -80 20 -169t-48 -200t-116 -170q168 92 332 -4 q86 -49 140 -49t94 35q41 35 98 137l96 -55q-66 -125 -134 -176t-156 -51q-89 0 -179 47t-149 47q-58 0 -106 -20t-111 -74z" />
<glyph unicode="&#xa4;" horiz-adv-x="1118" d="M59 242l179 137q-78 113 -78 250t78 250l-179 137l113 112l135 -174q105 88 251 88t253 -88l135 174l113 -112l-178 -137q77 -113 77 -250t-77 -250l178 -137l-113 -113l-135 174q-105 -88 -251 -88t-253 88l-135 -174zM274 629q0 -135 78 -219t207 -84t207 84t78 219 t-78 219t-207 84t-207 -84t-78 -219z" />
<glyph unicode="&#xa5;" horiz-adv-x="1024" d="M27 1434h157l328 -674l328 674h157l-358 -697h270v-114h-329v-179h329v-114h-329v-330h-136v330h-329v114h329v179h-329v114h270z" />
<glyph unicode="&#xa6;" horiz-adv-x="536" d="M207 -102v714h123v-714h-123zM207 821v715h123v-715h-123z" />
<glyph unicode="&#xa7;" horiz-adv-x="1095" d="M139 582q0 160 166 264q-100 100 -100 233q0 171 100 271t246 100q299 0 371 -299l-115 -39q-66 219 -256 219q-96 0 -156 -65q-59 -66 -59 -172t84 -172q84 -59 186 -110q101 -50 150 -77q113 -63 160 -130t47 -171q0 -160 -166 -264q100 -100 100 -233 q0 -171 -101 -271t-245 -100q-299 0 -371 299l115 39q66 -219 256 -219q96 0 156 65q59 66 59 173t-84 169q-57 41 -86 58l-121 61q-47 23 -145 78t-144 122q-47 67 -47 171zM262 580q0 -86 105 -162q80 -51 112 -68l215 -102q145 72 146 188q0 94 -105 160q-66 45 -112 68 l-215 104q-145 -72 -146 -188z" />
<glyph unicode="&#xa8;" horiz-adv-x="602" d="M43 1332q0 42 29 72q30 30 72 30t71 -30t29 -72t-29 -70t-72 -29q-43 1 -71 29t-29 70zM358 1332q0 42 29 72t71 30t72 -30t29 -72q0 -42 -30 -70q-29 -28 -71 -29q-42 1 -71 29t-29 70z" />
<glyph unicode="&#xa9;" horiz-adv-x="1847" d="M154 718q0 344 217 570q217 228 552 228t553 -230t218 -569t-218 -569t-552 -230t-553 227q-217 229 -217 573zM281 716q0 -286 178 -478t465 -193q287 0 465 193q178 194 178 480t-178 478t-465 193q-287 0 -465 -193q-178 -194 -178 -480zM524 718q0 216 123 329 q125 113 265 113t231 -72q90 -70 123 -199l-109 -29q-61 188 -233 189q-127 0 -203 -87t-76 -245t76 -245t203 -87q172 0 233 188l109 -28q-33 -129 -123 -200q-91 -71 -231 -71t-265 113q-123 115 -123 331z" />
<glyph unicode="&#xaa;" horiz-adv-x="880" d="M135 860q0 122 97 190q97 69 276 68h135v35q0 190 -186 190q-145 0 -191 -147l-98 25q20 102 98 161q78 60 202 60t200 -71t75 -216v-541h-75l-21 129q-80 -137 -260 -137q-113 0 -183 66t-69 188zM250 852q0 -148 160 -148q82 0 157 70q76 70 76 219v31h-131 q-262 0 -262 -172z" />
<glyph unicode="&#xab;" horiz-adv-x="1236" d="M102 592v86l539 399v-139l-405 -303l405 -303v-139zM575 592v86l539 399v-139l-405 -303l405 -303v-139z" />
<glyph unicode="&#xac;" horiz-adv-x="1173" d="M143 659v119h867v-487h-131v368h-736z" />
<glyph unicode="&#xad;" horiz-adv-x="964" d="M145 592v115h674v-115h-674z" />
<glyph unicode="&#xae;" horiz-adv-x="1847" d="M154 718q0 344 217 570q217 228 552 228t553 -230t218 -569t-218 -569t-552 -230t-553 227q-217 229 -217 573zM281 716q0 -286 178 -478t465 -193q287 0 465 193q178 194 178 480t-178 478t-465 193q-287 0 -465 -193q-178 -194 -178 -480zM645 281v872h295 q123 0 198 -69q74 -69 74 -171t-55 -169t-141 -82l260 -381h-127l-258 372h-125v-372h-121zM766 764h174q74 0 113 37t39 102q0 139 -152 139h-174v-278z" />
<glyph unicode="&#xaf;" horiz-adv-x="555" d="M31 1319v115h493v-115h-493z" />
<glyph unicode="&#xb0;" horiz-adv-x="720" d="M138 1212q0 98 61 164q67 66 163 66t158 -64t64 -164q0 -100 -62 -163t-162 -63q-98 0 -161 63q-61 63 -61 161zM236 1214q0 -58 34 -94q35 -35 90 -35t91 35q35 37 34 94q-1 58 -35 94t-90 36t-90 -36t-34 -94z" />
<glyph unicode="&#xb1;" horiz-adv-x="1107" d="M135 0v115h840v-115h-840zM135 758v114h363v361h114v-361h363v-114h-363v-363h-114v363h-363z" />
<glyph unicode="&#xb2;" horiz-adv-x="780" d="M133 614v39l301 375q82 100 82 172q0 142 -127 139q-53 0 -88 -42t-43 -113l-111 28q10 100 77 165q68 65 172 65t167 -62t63 -173q0 -110 -79 -210l-228 -280h328v-103h-514z" />
<glyph unicode="&#xb3;" horiz-adv-x="788" d="M133 846l111 16q8 -74 48 -116t108 -42t107 48q38 47 38 125q0 77 -38 121q-37 44 -93 44t-88 -20l-54 72l183 241h-277v99h436v-35l-204 -277q16 4 36 4q92 0 151 -67q58 -69 58 -185q-1 -116 -69 -192t-184 -76t-188 64t-81 176z" />
<glyph unicode="&#xb4;" horiz-adv-x="428" d="M51 1147l144 287h190l-233 -287h-101z" />
<glyph unicode="&#xb5;" horiz-adv-x="1179" d="M184 -418v1450h127v-692q0 -238 211 -238q142 0 238 132t96 346v452h127v-1032h-127v215q-55 -107 -150 -169t-206 -62t-189 53v-455h-127z" />
<glyph unicode="&#xb6;" horiz-adv-x="1333" d="M125 1080q-1 146 103 250t251 104h715v-127h-119v-1725h-135v1725h-326v-1725h-135v1143q-145 0 -252 102q-102 107 -102 253z" />
<glyph unicode="&#xb7;" horiz-adv-x="581" d="M186 714q0 46 30 76t75 30t75 -30t30 -75t-30 -75t-75 -30t-75 29t-30 75z" />
<glyph unicode="&#xb8;" horiz-adv-x="358" d="M23 -375l200 252h113l-166 -315z" />
<glyph unicode="&#xb9;" horiz-adv-x="581" d="M123 1198v115l244 121h32v-820h-102v668z" />
<glyph unicode="&#xba;" horiz-adv-x="1048" d="M146 1025q0 167 104 292t274 125t274 -125t105 -292q0 -167 -104 -293q-105 -126 -275 -126t-274 126t-104 293zM256 1024q0 -131 70 -225t198 -94t198 95q71 95 71 224t-71 224q-70 95 -198 95t-198 -94t-70 -225z" />
<glyph unicode="&#xbb;" horiz-adv-x="1236" d="M123 193v139l405 303l-405 303v139l539 -399v-86zM596 193v139l405 303l-405 303v139l539 -399v-86z" />
<glyph unicode="&#xbc;" horiz-adv-x="1617" d="M164 1198v115l244 121h32v-820h-102v668zM195 18l1110 1465l86 -68l-1110 -1464zM877 170v35l331 614h121v-551h107v-98h-107v-170h-102v170h-350zM1018 268h209v400z" />
<glyph unicode="&#xbd;" horiz-adv-x="1755" d="M164 1198v115l244 121h32v-820h-102v668zM195 18l1110 1465l86 -68l-1110 -1464zM1028 0v39l301 375q82 100 82 172q0 140 -127 139q-53 0 -88 -42t-43 -114l-111 29q10 100 77 165t171 65t168 -63q64 -62 64 -172t-80 -210l-228 -281h328v-102h-514z" />
<glyph unicode="&#xbe;" horiz-adv-x="1720" d="M133 846l111 16q8 -74 48 -116t108 -42t107 48q38 47 38 125q0 77 -38 121q-37 44 -93 44t-88 -20l-54 72l183 241h-277v99h436v-35l-204 -277q16 4 36 4q92 0 151 -67q58 -69 58 -185q-1 -116 -69 -192t-184 -76t-188 64t-81 176zM342 18l1110 1465l86 -68l-1110 -1464z M969 170v35l331 614h121v-551h107v-98h-107v-170h-102v170h-350zM1110 268h209v400z" />
<glyph unicode="&#xbf;" horiz-adv-x="897" d="M102 -152q0 158 179 254l147 80q72 39 102 80q30 40 31 100q0 60 -33 94t-90 33q-119 0 -162 -135l-102 39q59 215 260 215q110 0 182 -66t72 -182q0 -164 -180 -262l-168 -92q-106 -57 -106 -145t52 -134t148 -46q180 0 232 208l129 -22q-25 -145 -122 -225t-245 -80 t-237 80t-89 206zM317 903q0 49 32 81t81 32t81 -32t32 -81t-32 -81t-81 -32t-82 31q-31 33 -31 82z" />
<glyph unicode="&#xc0;" d="M20 0l519 1434h118l519 -1434h-140l-143 408h-590l-143 -408h-140zM346 535h504l-252 714zM375 1835h190l144 -287h-101z" />
<glyph unicode="&#xc1;" d="M20 0l519 1434h118l519 -1434h-140l-143 408h-590l-143 -408h-140zM346 535h504l-252 714zM483 1548l144 287h190l-233 -287h-101z" />
<glyph unicode="&#xc2;" d="M20 0l519 1434h118l519 -1434h-140l-143 408h-590l-143 -408h-140zM281 1561l294 309h46l294 -309h-147l-170 182l-170 -182h-147zM346 535h504l-252 714z" />
<glyph unicode="&#xc3;" d="M20 0l519 1434h118l519 -1434h-140l-143 408h-590l-143 -408h-140zM254 1679q78 141 203 142q74 0 147 -43q78 -41 121 -41q78 0 137 73l82 -63q-76 -141 -203 -141q-71 0 -147 42t-121 42q-80 0 -137 -74zM346 535h504l-252 714z" />
<glyph unicode="&#xc4;" d="M20 0l519 1434h118l519 -1434h-140l-143 408h-590l-143 -408h-140zM340 1734q0 42 29 72t71 29q42 0 72 -30q29 -29 29 -71t-29 -71t-72 -29q-44 0 -72 29t-28 71zM346 535h504l-252 714zM655 1734q0 42 29 72t71 29q41 0 71 -30q30 -29 30 -71t-30 -71t-72 -29t-70 29 q-29 29 -29 71z" />
<glyph unicode="&#xc5;" d="M20 0l519 1434h118l519 -1434h-140l-143 408h-590l-143 -408h-140zM346 535h504l-252 714zM406 1740q0 83 57 141t142 58t141 -57t56 -141t-56 -139q-56 -56 -141 -56t-142 56t-57 138zM500 1741q0 -47 30 -77t75 -30q46 0 75 30t29 78t-29 79t-75 31t-76 -32 q-29 -32 -29 -79z" />
<glyph unicode="&#xc6;" horiz-adv-x="1681" d="M14 0l629 1434h891v-127h-674v-480h551v-127h-551v-573h694v-127h-829v408h-391l-178 -408h-142zM389 535h336v714h-23z" />
<glyph unicode="&#xc7;" horiz-adv-x="1392" d="M121 717q0 176 52 320t144 233q186 180 437 180q201 0 343 -109t197 -301l-133 -39q-41 156 -145 239t-262 83q-220 0 -356 -160q-136 -161 -136 -447t135 -446t357 -159q158 1 262 83t145 238l133 -39q-55 -193 -197 -301t-343 -108q-262 0 -449 190q-184 190 -184 543z M557 -375l201 252h112l-165 -315z" />
<glyph unicode="&#xc8;" horiz-adv-x="1163" d="M207 0v1434h809v-127h-674v-480h551v-127h-551v-573h694v-127h-829zM408 1835h190l143 -287h-100z" />
<glyph unicode="&#xc9;" horiz-adv-x="1163" d="M207 0v1434h809v-127h-674v-480h551v-127h-551v-573h694v-127h-829zM504 1548l143 287h191l-234 -287h-100z" />
<glyph unicode="&#xca;" horiz-adv-x="1163" d="M207 0v1434h809v-127h-674v-480h551v-127h-551v-573h694v-127h-829zM293 1561l295 309h45l295 -309h-148l-170 182l-170 -182h-147z" />
<glyph unicode="&#xcb;" horiz-adv-x="1163" d="M207 0v1434h809v-127h-674v-480h551v-127h-551v-573h694v-127h-829zM375 1734q1 42 29 72t71 29q43 0 72 -30q29 -29 29 -71t-30 -71q-28 -29 -71 -29t-72 29q-28 29 -28 71zM690 1734q0 42 29 72t71 29q42 0 71 -30q30 -29 30 -71t-30 -71t-72 -29q-43 0 -71 29t-28 71z " />
<glyph unicode="&#xcc;" horiz-adv-x="548" d="M51 1835h191l143 -287h-100zM207 0v1434h135v-1434h-135z" />
<glyph unicode="&#xcd;" horiz-adv-x="548" d="M174 1548l143 287h191l-234 -287h-100zM207 0v1434h135v-1434h-135z" />
<glyph unicode="&#xce;" horiz-adv-x="548" d="M-43 1561l295 309h45l295 -309h-148l-170 182l-170 -182h-147zM207 0v1434h135v-1434h-135z" />
<glyph unicode="&#xcf;" horiz-adv-x="548" d="M16 1734q0 42 29 72t72 29q43 0 71 -30q28 -29 29 -71q0 -42 -29 -71q-30 -29 -72 -29t-71 29t-29 71zM207 0v1434h135v-1434h-135zM332 1734q0 42 28 72t71 29q42 0 72 -30q29 -29 29 -71t-30 -71t-71 -29q-42 0 -71 29q-28 29 -28 71z" />
<glyph unicode="&#xd0;" horiz-adv-x="1406" d="M86 653v127h172v654h377q283 0 467 -195t184 -525t-184 -522t-467 -192h-377v653h-172zM393 127h244q217 -1 362 149t146 441q0 291 -148 440q-143 150 -360 150h-244v-527h172v-127h-172v-526z" />
<glyph unicode="&#xd1;" horiz-adv-x="1419" d="M207 0v1434h160l710 -1219v1219h135v-1434h-159l-711 1214v-1214h-135zM354 1679q76 141 203 142q74 0 148 -43q78 -41 120 -41q80 0 138 73l81 -63q-78 -141 -202 -141q-72 0 -150 41q-74 43 -119 43q-78 0 -137 -74z" />
<glyph unicode="&#xd2;" horiz-adv-x="1499" d="M121 718q0 328 183 530q182 202 446 202t444 -203q184 -199 184 -529t-183 -533q-183 -201 -445 -201t-447 200q-182 206 -182 534zM262 716q0 -290 138 -448t348 -158t350 158q139 162 139 450t-139 446q-139 159 -350 159q-210 0 -348 -158q-138 -159 -138 -449z M506 1835h190l144 -287h-101z" />
<glyph unicode="&#xd3;" horiz-adv-x="1499" d="M121 718q0 328 183 530q182 202 446 202t444 -203q184 -199 184 -529t-183 -533q-183 -201 -445 -201t-447 200q-182 206 -182 534zM262 716q0 -290 138 -448t348 -158t350 158q139 162 139 450t-139 446q-139 159 -350 159q-210 0 -348 -158q-138 -159 -138 -449z M588 1548l143 287h191l-234 -287h-100z" />
<glyph unicode="&#xd4;" horiz-adv-x="1499" d="M121 718q0 328 183 530q182 202 446 202t444 -203q184 -199 184 -529t-183 -533q-183 -201 -445 -201t-447 200q-182 206 -182 534zM262 716q0 -290 138 -448t348 -158t350 158q139 162 139 450t-139 446q-139 159 -350 159q-210 0 -348 -158q-138 -159 -138 -449z M432 1561l295 309h45l295 -309h-147l-170 182l-170 -182h-148z" />
<glyph unicode="&#xd5;" horiz-adv-x="1499" d="M121 718q0 328 183 530q182 202 446 202t444 -203q184 -199 184 -529t-183 -533q-183 -201 -445 -201t-447 200q-182 206 -182 534zM262 716q0 -290 138 -448t348 -158t350 158q139 162 139 450t-139 446q-139 159 -350 159q-210 0 -348 -158q-138 -159 -138 -449z M406 1679q78 141 202 142q74 0 148 -43q78 -41 121 -41q78 0 137 73l82 -63q-76 -141 -203 -141q-72 0 -150 41q-74 43 -118 43q-81 0 -138 -74z" />
<glyph unicode="&#xd6;" horiz-adv-x="1499" d="M121 718q0 328 183 530q182 202 446 202t444 -203q184 -199 184 -529t-183 -533q-183 -201 -445 -201t-447 200q-182 206 -182 534zM262 716q0 -290 138 -448t348 -158t350 158q139 162 139 450t-139 446q-139 159 -350 159q-210 0 -348 -158q-138 -159 -138 -449z M492 1734q0 42 28 72t72 29q43 0 72 -30q28 -29 28 -71t-28 -71t-72 -29q-43 0 -72 29q-28 29 -28 71zM807 1734q0 42 29 72q28 30 70 29q42 0 72 -30q30 -29 30 -71t-30 -71t-72 -29t-70 29t-29 71z" />
<glyph unicode="&#xd7;" horiz-adv-x="1073" d="M141 332l314 315l-314 314l80 81l316 -315l311 313l82 -82l-314 -311l316 -315l-82 -80l-313 313l-316 -313z" />
<glyph unicode="&#xd8;" horiz-adv-x="1499" d="M121 728q0 320 183 520q183 202 446 202q219 0 383 -139l120 155l95 -71l-131 -170q161 -199 161 -519t-183 -521q-183 -202 -445 -201q-219 0 -383 139l-121 -156l-94 72l131 170q-162 199 -162 519zM262 740q0 -267 103 -425l690 895q-125 113 -305 113 q-212 0 -350 -158t-138 -425zM444 223q125 -113 320 -113t334 158q139 162 139 428t-102 422z" />
<glyph unicode="&#xd9;" horiz-adv-x="1339" d="M178 459v975h135v-988q1 -147 95 -241t262 -94t262 94t94 241v988h135v-975q0 -225 -141 -350t-349 -125t-352 125q-141 125 -141 350zM440 1835h191l143 -287h-100z" />
<glyph unicode="&#xda;" horiz-adv-x="1339" d="M178 459v975h135v-988q1 -147 95 -241t262 -94t262 94t94 241v988h135v-975q0 -225 -141 -350t-349 -125t-352 125q-141 125 -141 350zM551 1548l143 287h191l-234 -287h-100z" />
<glyph unicode="&#xdb;" horiz-adv-x="1339" d="M178 459v975h135v-988q1 -147 95 -241t262 -94t262 94t94 241v988h135v-975q0 -225 -141 -350t-349 -125t-352 125q-141 125 -141 350zM350 1561l295 309h45l295 -309h-147l-170 182l-170 -182h-148z" />
<glyph unicode="&#xdc;" horiz-adv-x="1339" d="M178 459v975h135v-988q1 -147 95 -241t262 -94t262 94t94 241v988h135v-975q0 -225 -141 -350t-349 -125t-352 125q-141 125 -141 350zM412 1734q0 42 28 72t72 29q43 0 72 -30q28 -29 28 -71t-28 -71t-72 -29q-43 0 -72 29q-28 29 -28 71zM727 1734q0 42 29 72 q28 30 70 29q42 0 72 -30q30 -29 30 -71t-30 -71t-72 -29t-70 29t-29 71z" />
<glyph unicode="&#xdd;" horiz-adv-x="1024" d="M12 1434h158l342 -678l342 678h158l-432 -811v-623h-136v623zM385 1548l143 287h191l-234 -287h-100z" />
<glyph unicode="&#xde;" horiz-adv-x="1183" d="M207 0v1434h135v-322h352q194 0 304 -105t110 -289t-110 -290t-304 -106h-352v-322h-135zM342 449h354q135 1 203 71t68 197t-68 197t-203 71h-354v-536z" />
<glyph unicode="&#xdf;" horiz-adv-x="1140" d="M82 725v115h111v159q0 213 104 332t274 119q171 0 273 -98t102 -256q0 -115 -55 -200t-139 -105q116 -27 202 -124t86 -241q0 -209 -118 -326t-316 -116q-84 0 -155 14v119q66 -14 143 -15q152 0 234 82t81 231q0 149 -96 229t-258 81h-66v115h78q121 0 189 66t68 180 t-70 180t-185 66t-181 -87q-66 -86 -64 -248v-997h-131v725h-111z" />
<glyph unicode="&#xe0;" horiz-adv-x="1036" d="M117 303q0 160 125 246t350 86h172v45q0 250 -238 250q-188 0 -245 -193l-123 29q20 127 122 205t254 78q150 0 252 -99q105 -94 105 -266v-684h-96l-31 160q-102 -176 -326 -176q-147 0 -234 80t-87 239zM250 304q0 -99 53 -150q53 -52 160 -52t204 92t97 283v39h-168 q-170 0 -258 -56t-88 -156zM309 1434h191l143 -287h-100z" />
<glyph unicode="&#xe1;" horiz-adv-x="1036" d="M117 303q0 160 125 246t350 86h172v45q0 250 -238 250q-188 0 -245 -193l-123 29q20 127 122 205t254 78q150 0 252 -99q105 -94 105 -266v-684h-96l-31 160q-102 -176 -326 -176q-147 0 -234 80t-87 239zM250 304q0 -99 53 -150q53 -52 160 -52t204 92t97 283v39h-168 q-170 0 -258 -56t-88 -156zM418 1147l143 287h191l-234 -287h-100z" />
<glyph unicode="&#xe2;" horiz-adv-x="1036" d="M117 303q0 160 125 246t350 86h172v45q0 250 -238 250q-188 0 -245 -193l-123 29q20 127 122 205t254 78q150 0 252 -99q105 -94 105 -266v-684h-96l-31 160q-102 -176 -326 -176q-147 0 -234 80t-87 239zM217 1159l295 309h45l295 -309h-147l-170 182l-170 -182h-148z M250 304q0 -99 53 -150q53 -52 160 -52t204 92t97 283v39h-168q-170 0 -258 -56t-88 -156z" />
<glyph unicode="&#xe3;" horiz-adv-x="1036" d="M117 303q0 160 125 246t350 86h172v45q0 250 -238 250q-188 0 -245 -193l-123 29q20 127 122 205t254 78q150 0 252 -99q105 -94 105 -266v-684h-96l-31 160q-102 -176 -326 -176q-147 0 -234 80t-87 239zM190 1278q76 141 203 141q74 0 148 -43q78 -41 121 -41 q80 0 137 74l82 -63q-78 -141 -203 -142q-72 0 -150 41q-74 43 -118 43q-79 0 -138 -74zM250 304q0 -99 53 -150q53 -52 160 -52t204 92t97 283v39h-168q-170 0 -258 -56t-88 -156z" />
<glyph unicode="&#xe4;" horiz-adv-x="1036" d="M117 303q0 160 125 246t350 86h172v45q0 250 -238 250q-188 0 -245 -193l-123 29q20 127 122 205t254 78q150 0 252 -99q105 -94 105 -266v-684h-96l-31 160q-102 -176 -326 -176q-147 0 -234 80t-87 239zM250 304q0 -99 53 -150q53 -52 160 -52t204 92t97 283v39h-168 q-170 0 -258 -56t-88 -156zM274 1332q0 42 29 72t72 30t71 -30t29 -72q0 -42 -29 -70q-30 -28 -72 -29q-42 1 -71 29t-29 70zM590 1332q0 42 28 72q29 30 71 30t72 -30t30 -72t-30 -70t-72 -29q-43 1 -71 29t-28 70z" />
<glyph unicode="&#xe5;" horiz-adv-x="1036" d="M117 303q0 160 125 246t350 86h172v45q0 250 -238 250q-188 0 -245 -193l-123 29q20 127 122 205t254 78q150 0 252 -99q105 -94 105 -266v-684h-96l-31 160q-102 -176 -326 -176q-147 0 -234 80t-87 239zM250 304q0 -99 53 -150q53 -52 160 -52t204 92t97 283v39h-168 q-170 0 -258 -56t-88 -156zM328 1338q0 84 57 142t142 58t141 -57t57 -141q0 -84 -56 -140q-55 -55 -141 -55t-143 55t-57 138zM422 1339q0 -47 30 -77t75 -29q46 0 75 30q29 29 29 77t-29 79t-75 31q-45 0 -75 -32t-30 -79z" />
<glyph unicode="&#xe6;" horiz-adv-x="1779" d="M117 303q0 160 125 246t350 86h172v45q0 250 -238 250q-188 0 -245 -193l-123 29q20 127 122 205t232 78q129 1 218 -53t130 -146q129 199 363 199q201 -1 327 -133t125 -343v-57h-778q0 -186 88 -300t238 -114q217 0 315 213l115 -47q-78 -152 -179 -218 q-102 -66 -244 -66t-250 70t-157 190q-47 -127 -147 -194q-100 -66 -242 -66t-230 80q-87 80 -87 239zM250 304q0 -99 53 -150q53 -52 160 -52t204 92t97 283v39h-168q-170 0 -258 -56t-88 -156zM905 635h639q-18 139 -102 217t-213 78t-213 -81t-111 -214z" />
<glyph unicode="&#xe7;" horiz-adv-x="1081" d="M115 515q0 218 121 376t335 158q309 0 416 -285l-115 -45q-86 211 -301 211q-160 0 -241 -119q-82 -115 -82 -294t82 -298q84 -117 241 -117q215 0 301 211l115 -45q-106 -285 -416 -284q-217 0 -337 156t-119 375zM377 -375l201 252h112l-166 -315z" />
<glyph unicode="&#xe8;" horiz-adv-x="1130" d="M115 515q0 230 127 382q128 152 330 152q202 -1 328 -133t126 -343v-57h-778q0 -186 88 -300t237 -114q117 0 189 52t129 170l113 -56q-78 -152 -180 -218t-251 -66q-207 0 -333 150t-125 381zM256 635h639q-18 139 -102 217q-85 78 -214 78t-213 -81t-110 -214z M371 1434h190l144 -287h-101z" />
<glyph unicode="&#xe9;" horiz-adv-x="1130" d="M115 515q0 230 127 382q128 152 330 152q202 -1 328 -133t126 -343v-57h-778q0 -186 88 -300t237 -114q117 0 189 52t129 170l113 -56q-78 -152 -180 -218t-251 -66q-207 0 -333 150t-125 381zM256 635h639q-18 139 -102 217q-85 78 -214 78t-213 -81t-110 -214z M420 1147l143 287h191l-234 -287h-100z" />
<glyph unicode="&#xea;" horiz-adv-x="1130" d="M115 515q0 230 127 382q128 152 330 152q202 -1 328 -133t126 -343v-57h-778q0 -186 88 -300t237 -114q117 0 189 52t129 170l113 -56q-78 -152 -180 -218t-251 -66q-207 0 -333 150t-125 381zM256 635h639q-18 139 -102 217q-85 78 -214 78t-213 -81t-110 -214z M256 1159l295 309h45l295 -309h-148l-170 182l-170 -182h-147z" />
<glyph unicode="&#xeb;" horiz-adv-x="1130" d="M115 515q0 230 127 382q128 152 330 152q202 -1 328 -133t126 -343v-57h-778q0 -186 88 -300t237 -114q117 0 189 52t129 170l113 -56q-78 -152 -180 -218t-251 -66q-207 0 -333 150t-125 381zM256 635h639q-18 139 -102 217q-85 78 -214 78t-213 -81t-110 -214z M328 1332q0 42 28 72q29 30 72 30t72 -30q28 -30 28 -72t-28 -70t-72 -29q-44 1 -72 29t-28 70zM643 1332q0 42 29 72q28 30 70 30t72 -30t30 -72t-30 -70t-72 -29q-42 1 -70 29t-29 70z" />
<glyph unicode="&#xec;" horiz-adv-x="573" d="M55 1434h191l143 -287h-100zM225 0v1032h127v-1032h-127z" />
<glyph unicode="&#xed;" horiz-adv-x="573" d="M199 1147l143 287h190l-233 -287h-100zM225 0v1032h127v-1032h-127z" />
<glyph unicode="&#xee;" horiz-adv-x="573" d="M-31 1159l295 309h45l295 -309h-147l-170 182l-170 -182h-148zM225 0v1032h127v-1032h-127z" />
<glyph unicode="&#xef;" horiz-adv-x="573" d="M33 1332q0 42 28 72q29 30 72 30t72 -30t29 -72t-30 -70q-28 -28 -71 -29q-43 1 -71 29t-29 70zM225 0v1032h127v-1032h-127zM348 1332q0 42 29 72t71 30t71 -30q30 -30 30 -72t-30 -70t-72 -29q-43 1 -71 29t-28 70z" />
<glyph unicode="&#xf0;" horiz-adv-x="1175" d="M115 517q0 216 129 374t344 158q170 0 278 -117q-55 164 -274 330l-90 -134l-86 62l90 131q-84 51 -166 86l59 88q90 -41 168 -84l78 115l86 -62l-76 -110q406 -276 406 -838q0 -215 -129 -374q-129 -158 -344 -158t-344 158t-129 375zM248 516q0 -172 89 -293t251 -121 t252 121q88 121 88 293t-89 293t-251 121t-251 -121t-89 -293z" />
<glyph unicode="&#xf1;" horiz-adv-x="1179" d="M197 0v1032h127v-215q55 107 150 169t223 62t213 -89q85 -90 85 -250v-709h-127v692q0 238 -211 238q-145 0 -239 -131t-94 -346v-453h-127zM260 1278q76 141 203 141q74 0 147 -43q78 -41 121 -41q80 0 137 74l82 -63q-78 -141 -202 -142q-72 0 -150 41q-74 43 -119 43 q-78 0 -137 -74z" />
<glyph unicode="&#xf2;" d="M115 516q0 211 133 372t350 161t350 -161t133 -372t-133 -372t-350 -161t-350 161t-133 372zM248 516q0 -168 93 -291t257 -123t257 122t93 292t-93 292t-257 122t-257 -123t-93 -291zM379 1434h190l144 -287h-101z" />
<glyph unicode="&#xf3;" d="M115 516q0 211 133 372t350 161t350 -161t133 -372t-133 -372t-350 -161t-350 161t-133 372zM248 516q0 -168 93 -291t257 -123t257 122t93 292t-93 292t-257 122t-257 -123t-93 -291zM446 1147l144 287h190l-233 -287h-101z" />
<glyph unicode="&#xf4;" d="M115 516q0 211 133 372t350 161t350 -161t133 -372t-133 -372t-350 -161t-350 161t-133 372zM248 516q0 -168 93 -291t257 -123t257 122t93 292t-93 292t-257 122t-257 -123t-93 -291zM281 1159l294 309h46l294 -309h-147l-170 182l-170 -182h-147z" />
<glyph unicode="&#xf5;" d="M115 516q0 211 133 372t350 161t350 -161t133 -372t-133 -372t-350 -161t-350 161t-133 372zM248 516q0 -168 93 -291t257 -123t257 122t93 292t-93 292t-257 122t-257 -123t-93 -291zM254 1278q78 141 203 141q74 0 147 -43q78 -41 121 -41q78 0 137 74l82 -63 q-76 -141 -203 -142q-71 0 -147 42t-121 42q-80 0 -137 -74z" />
<glyph unicode="&#xf6;" d="M115 516q0 211 133 372t350 161t350 -161t133 -372t-133 -372t-350 -161t-350 161t-133 372zM248 516q0 -168 93 -291t257 -123t257 122t93 292t-93 292t-257 122t-257 -123t-93 -291zM340 1332q0 42 29 72t71 30t72 -30q29 -30 29 -72t-29 -70t-72 -29q-44 1 -72 29 t-28 70zM655 1332q0 42 29 72t71 30q41 0 71 -30t30 -72t-30 -70t-72 -29q-42 1 -70 29q-29 28 -29 70z" />
<glyph unicode="&#xf7;" horiz-adv-x="1044" d="M102 592v115h840v-115h-840zM416 274q0 44 30 75q30 30 74 30q45 0 75 -30t30 -75q0 -44 -30 -74t-75 -30t-76 29q-28 31 -28 75zM416 1024q0 45 30 75q30 29 74 29q45 0 75 -30t30 -74q0 -45 -30 -75t-75 -30t-76 29q-29 31 -28 76z" />
<glyph unicode="&#xf8;" d="M115 -2l123 156q-123 149 -123 361t133 373t350 161q160 0 274 -88l115 145l94 -72l-123 -155q123 -150 123 -362t-133 -373t-350 -160q-160 0 -274 88l-115 -146zM248 523q0 -161 69 -267l482 608q-88 66 -201 66q-164 0 -257 -123t-93 -284zM397 168q88 -66 201 -66 q164 0 257 122t93 284t-69 268z" />
<glyph unicode="&#xf9;" horiz-adv-x="1159" d="M184 324v708h127v-692q0 -238 211 -238q142 0 238 132t96 346v452h127v-1032h-127v215q-55 -107 -150 -169t-204 -62q-147 0 -233 90q-85 90 -85 250zM393 1434h191l143 -287h-100z" />
<glyph unicode="&#xfa;" horiz-adv-x="1159" d="M184 324v708h127v-692q0 -238 211 -238q142 0 238 132t96 346v452h127v-1032h-127v215q-55 -107 -150 -169t-204 -62q-147 0 -233 90q-85 90 -85 250zM442 1147l144 287h190l-233 -287h-101z" />
<glyph unicode="&#xfb;" horiz-adv-x="1159" d="M184 324v708h127v-692q0 -238 211 -238q142 0 238 132t96 346v452h127v-1032h-127v215q-55 -107 -150 -169t-204 -62q-147 0 -233 90q-85 90 -85 250zM270 1159l295 309h45l295 -309h-147l-170 182l-170 -182h-148z" />
<glyph unicode="&#xfc;" horiz-adv-x="1159" d="M184 324v708h127v-692q0 -238 211 -238q142 0 238 132t96 346v452h127v-1032h-127v215q-55 -107 -150 -169t-204 -62q-147 0 -233 90q-85 90 -85 250zM334 1332q0 42 28 72q29 30 72 30t72 -30t29 -72t-29 -70t-72 -29q-44 1 -72 29t-28 70zM649 1332q0 42 29 72t71 30 q41 0 71 -30t30 -72t-30 -70t-72 -29q-42 1 -70 29q-29 28 -29 70z" />
<glyph unicode="&#xfd;" horiz-adv-x="925" d="M35 1032h133l307 -835l287 835h133l-512 -1450h-127l150 424zM354 1147l144 287h190l-233 -287h-101z" />
<glyph unicode="&#xfe;" horiz-adv-x="1226" d="M199 -418v1868h131v-563q55 72 145 117t176 45q217 0 339 -152t122 -383t-121 -381t-340 -149q-96 0 -187 44t-134 107v-553h-131zM313 513q0 -183 88 -297t245 -114t245 114t88 298t-88 300t-246 116t-245 -117t-87 -300z" />
<glyph unicode="&#xff;" horiz-adv-x="925" d="M35 1032h133l307 -835l287 835h133l-512 -1450h-127l150 424zM217 1332q0 42 29 72q30 30 72 30t71 -30t29 -72t-29 -70t-72 -29q-43 1 -71 29t-29 70zM532 1332q0 42 29 72t71 30t72 -30t29 -72q0 -42 -30 -70q-29 -28 -71 -29q-42 1 -71 29t-29 70z" />
<glyph unicode="&#x152;" horiz-adv-x="2199" d="M121 718q0 328 183 530t446 202q147 0 277 -68t216 -194v246h809v-127h-674v-480h551v-127h-551v-573h695v-127h-830v246q-86 -125 -216 -194t-277 -68q-262 0 -447 200q-182 205 -182 534zM262 716q0 -290 138 -448t348 -158t350 158q139 162 139 450t-139 446 q-139 159 -350 159q-210 0 -348 -158q-138 -159 -138 -449z" />
<glyph unicode="&#x153;" horiz-adv-x="1964" d="M115 516q0 211 133 372t350 161q136 0 242 -67t170 -183q57 119 160 185t237 65q201 -1 327 -133t126 -343v-57h-779v-18q4 -180 91 -288t235 -108q217 0 315 213l115 -47q-78 -152 -179 -218q-100 -66 -242 -66t-246 65q-103 66 -160 184q-64 -117 -170 -183t-242 -66 q-217 0 -350 160t-133 372zM248 516q0 -168 93 -291t257 -123t257 122t93 292t-93 292t-257 122t-257 -123t-93 -291zM1092 635h637q-19 139 -103 217t-212 78t-212 -81t-110 -214z" />
<glyph unicode="&#x178;" horiz-adv-x="1024" d="M12 1434h158l342 -678l342 678h158l-432 -811v-623h-136v623zM254 1734q0 42 29 72t71 29q42 0 72 -30q29 -29 29 -71t-29 -71t-72 -29q-44 0 -72 29t-28 71zM569 1734q0 42 29 72t71 29q41 0 71 -30q30 -29 30 -71t-30 -71t-72 -29t-70 29q-29 29 -29 71z" />
<glyph unicode="&#x2c6;" horiz-adv-x="757" d="M61 1159l295 309h45l295 -309h-147l-170 182l-170 -182h-148z" />
<glyph unicode="&#x2dc;" horiz-adv-x="772" d="M41 1278q78 141 203 141q74 0 147 -43q78 -41 121 -41q78 0 137 74l82 -63q-76 -141 -203 -142q-72 0 -148 42t-120 42q-80 0 -137 -74z" />
<glyph unicode="&#x2000;" horiz-adv-x="969" />
<glyph unicode="&#x2001;" horiz-adv-x="1939" />
<glyph unicode="&#x2002;" horiz-adv-x="969" />
<glyph unicode="&#x2003;" horiz-adv-x="1939" />
<glyph unicode="&#x2004;" horiz-adv-x="646" />
<glyph unicode="&#x2005;" horiz-adv-x="484" />
<glyph unicode="&#x2006;" horiz-adv-x="323" />
<glyph unicode="&#x2007;" horiz-adv-x="323" />
<glyph unicode="&#x2008;" horiz-adv-x="242" />
<glyph unicode="&#x2009;" horiz-adv-x="387" />
<glyph unicode="&#x200a;" horiz-adv-x="107" />
<glyph unicode="&#x2010;" horiz-adv-x="964" d="M145 592v115h674v-115h-674z" />
<glyph unicode="&#x2011;" horiz-adv-x="964" d="M145 592v115h674v-115h-674z" />
<glyph unicode="&#x2012;" horiz-adv-x="964" d="M145 592v115h674v-115h-674z" />
<glyph unicode="&#x2013;" horiz-adv-x="1140" d="M147 592v115h838v-115h-838z" />
<glyph unicode="&#x2014;" horiz-adv-x="1560" d="M147 592v115h1258v-115h-1258z" />
<glyph unicode="&#x2018;" horiz-adv-x="563" d="M123 1450h211l125 -377h-101z" />
<glyph unicode="&#x2019;" horiz-adv-x="563" d="M104 1073l125 377h211l-235 -377h-101z" />
<glyph unicode="&#x201a;" horiz-adv-x="563" d="M104 -29l125 377h211l-235 -377h-101z" />
<glyph unicode="&#x201c;" horiz-adv-x="856" d="M123 1450h211l125 -377h-101zM416 1450h211l125 -377h-101z" />
<glyph unicode="&#x201d;" horiz-adv-x="856" d="M104 1073l125 377h211l-235 -377h-101zM397 1073l125 377h211l-235 -377h-101z" />
<glyph unicode="&#x201e;" horiz-adv-x="856" d="M104 -29l125 377h211l-235 -377h-101zM397 -29l125 377h211l-235 -377h-101z" />
<glyph unicode="&#x2022;" horiz-adv-x="622" d="M178 676q0 55 39 94t94 39t95 -39t38 -94q0 -55 -38 -94t-94 -39t-95 39t-39 94z" />
<glyph unicode="&#x2026;" horiz-adv-x="1593" d="M186 99q0 46 30 76t75 30t75 -30t30 -75q0 -44 -30 -74t-75 -30t-75 28t-30 75zM692 110q0 58 66 86t112 -22q50 -47 22 -113t-95 -65q-47 0 -76 28t-29 86zM1198 99q0 46 30 76t75 30t75 -30t29 -75q0 -44 -30 -74q-31 -30 -75 -30t-74 28t-30 75z" />
<glyph unicode="&#x202f;" horiz-adv-x="387" />
<glyph unicode="&#x2039;" horiz-adv-x="763" d="M102 592v86l539 399v-139l-405 -303l405 -303v-139z" />
<glyph unicode="&#x203a;" horiz-adv-x="763" d="M123 193v139l405 303l-405 303v139l539 -399v-86z" />
<glyph unicode="&#x205f;" horiz-adv-x="484" />
<glyph unicode="&#x20ac;" horiz-adv-x="1253" d="M72 510l59 115h102v184h-161l59 115h111q33 244 172 385t358 141q256 0 391 -238l-112 -61q-86 184 -279 184q-160 0 -263 -106t-134 -305h528l-59 -115h-479v-184h538l-59 -115h-469q31 -199 134 -305t263 -107q193 0 279 185l112 -62q-135 -238 -391 -237 q-219 0 -358 141t-172 385h-170z" />
<glyph unicode="&#x2122;" horiz-adv-x="1660" d="M61 1343v91h568v-91h-234v-729h-100v729h-234zM784 614v820h107l242 -578l241 578h107v-820h-101v605l-219 -529h-57l-219 529v-605h-101z" />
<glyph unicode="&#x25fc;" horiz-adv-x="1030" d="M0 0v1030h1030v-1030h-1030z" />
</font>
</defs>
</svg>
