<?xml version="1.0" standalone="no"?>
<!DOCTYPE svg PUBLIC "-//W3C//DTD SVG 1.1//EN" "http://www.w3.org/Graphics/SVG/1.1/DTD/svg11.dtd" >
<svg xmlns="http://www.w3.org/2000/svg">
<metadata></metadata>
<defs>
<font id="webfontregular" horiz-adv-x="1296" >
<font-face units-per-em="2048" ascent="1495" descent="-553" />
<missing-glyph horiz-adv-x="454" />
<glyph unicode="&#xfb01;" horiz-adv-x="999" d="M35 741v15l127 71v99q0 233 138 386t345 152q92 0 193 -34l-62 -123q-135 86 -223 86q-88 -1 -170 -101t-82 -284v-183h414q18 9 58 19t56 16v-762l125 -86v-12h-387v12l121 86v643h-387v-635l176 -94v-12h-440v12l125 86v643h-127z" />
<glyph unicode="&#xfb02;" horiz-adv-x="999" d="M35 741v15l127 71v101q0 233 139 385t354 151q80 0 174 -16v-1350l125 -86v-12h-387v12l123 86v1260q-53 33 -121 33q-102 -1 -185 -99t-83 -286v-181h289l-74 -84h-215v-632l176 -97v-12h-440v12l125 86v643h-127z" />
<glyph unicode="&#xfb03;" horiz-adv-x="1527" d="M35 741v15l127 71v82q0 227 128 383t326 156q61 0 144 -14l-51 -115q-106 57 -179 57t-151 -99t-78 -278v-174h389v101q0 233 138 386t346 152q92 0 192 -34l-59 -123q-131 86 -223 86q-92 -1 -173 -101q-82 -100 -82 -284v-183h414q19 9 59 19t56 16v-762l125 -86v-12 h-387v12l123 86v643h-390v-635l177 -94v-12h-441v12l125 86v643h-389v-635l174 -94v-12h-438v12l125 86v643h-127z" />
<glyph unicode="&#xfb04;" horiz-adv-x="1527" d="M35 741v15l127 71v82q0 227 128 383t326 156q61 0 144 -14l-51 -115q-106 57 -179 57t-151 -99t-78 -278v-174h389v103q0 233 139 385t355 151q80 0 174 -16v-1350l125 -86v-12h-387v12l123 86v1260q-45 33 -121 33q-102 -1 -186 -99t-83 -286v-181h291l-76 -84h-215 v-632l177 -97v-12h-441v12l125 86v643h-389v-635l174 -94v-12h-438v12l125 86v643h-127z" />
<glyph horiz-adv-x="0" />
<glyph horiz-adv-x="682" />
<glyph horiz-adv-x="0" />
<glyph horiz-adv-x="0" />
<glyph unicode="&#xd;" horiz-adv-x="681" />
<glyph unicode=" "  horiz-adv-x="454" />
<glyph unicode="&#x09;" horiz-adv-x="454" />
<glyph unicode="&#xa0;" horiz-adv-x="454" />
<glyph unicode="!" horiz-adv-x="395" d="M104 78q0 40 27 66t68 26t67 -26t25 -66q0 -40 -26 -68q-27 -26 -67 -26t-67 26t-27 68zM117 1356h159l-4 -65q-18 -296 -63 -855h-25z" />
<glyph unicode="&#x22;" horiz-adv-x="579" d="M104 1350q0 74 64 73q61 1 61 -73q0 -35 -55 -410h-14q-55 367 -56 410zM348 1350q0 74 64 73q61 1 61 -73q0 -35 -55 -410h-15q-55 367 -55 410z" />
<glyph unicode="#" horiz-adv-x="811" d="M27 506v49h190l72 338h-178v49h188l90 414h60l-91 -414h179l90 414h55l-90 -414h196v-49h-206l-74 -338h197v-49h-207l-111 -506h-53l108 506h-178l-110 -506h-56l109 506h-180zM274 555h179l73 338h-178z" />
<glyph unicode="$" horiz-adv-x="935" d="M100 385h15q70 -279 243 -330l62 600q-156 97 -230 187t-74 219t103 223q102 94 260 94h15l16 154h59l-16 -156q117 -10 182 -39v-170h-10q-55 113 -178 144l-53 -512l28 -19q164 -109 238 -205q74 -97 74 -239t-105 -249t-283 -107q-23 0 -36 2l-21 -201h-59l20 207 q-131 20 -233 78q-16 98 -17 319zM260 1109q0 -91 45 -151t133 -122l49 483h-14q-93 1 -153 -59t-60 -151zM416 43h30q111 0 178 72q66 71 66 175t-50 176t-165 152z" />
<glyph unicode="%" horiz-adv-x="1308" d="M68 1080q0 120 85 206t205 86t203 -82q84 -82 84 -202t-85 -206t-206 -87q-122 1 -204 83t-82 202zM135 0l961 1356h84l-959 -1356h-86zM148 1084q0 -96 60 -157q60 -63 149 -63t149 62t59 157q0 96 -59 158q-60 62 -149 62q-89 1 -149 -61t-60 -158zM664 265 q0 120 86 207t204 87t203 -83q84 -83 84 -204q0 -122 -84 -206t-205 -84q-120 0 -204 82t-84 201zM744 270q0 -94 60 -158q62 -64 150 -63t148 63t59 157q0 95 -59 157q-58 62 -148 63q-90 0 -150 -62q-60 -63 -60 -157z" />
<glyph unicode="&#x26;" horiz-adv-x="1417" d="M72 345q0 150 95 270t236 180q-2 0 -2 2q-137 137 -137 268q0 94 75 166t185 72q110 -1 192 -53t81 -165q0 -113 -125 -193q-74 -47 -105 -63q217 -217 398 -481l41 70q115 221 174 297l-142 104v12h371v-12q-127 -75 -178 -139t-139 -224t-93 -163q148 -231 307 -231 q87 0 134 20l6 -8q-90 -90 -209 -90q-186 0 -324 188q-164 -201 -377 -201q-212 0 -338 112t-126 262zM221 401q0 -145 92 -240t244 -95q185 -1 320 157q-123 185 -210 289t-233 250q-213 -135 -213 -361zM385 1104q0 -62 33 -112q33 -48 117 -132q137 90 137 227 q0 74 -39 119t-101 45q-62 -1 -105 -43q-42 -42 -42 -104z" />
<glyph unicode="'" horiz-adv-x="333" d="M104 1350q0 74 64 73q61 1 61 -73q0 -35 -55 -410h-14q-55 367 -56 410z" />
<glyph unicode="(" horiz-adv-x="557" d="M117 582q-1 282 111 538t278 430l12 -12q-272 -442 -272 -942t272 -973l-12 -12q-168 182 -279 435q-110 253 -110 536z" />
<glyph unicode=")" horiz-adv-x="557" d="M37 -377q272 471 272 972t-272 943l12 12q165 -174 277 -430t112 -538q0 -283 -110 -536t-279 -435z" />
<glyph unicode="*" horiz-adv-x="544" d="M16 1147v14l191 21l-62 182l13 8l123 -155l131 143l12 -10l-80 -179l184 -38v-15l-188 -20l59 -180l-14 -7l-119 152l-133 -143l-14 6l78 178z" />
<glyph unicode="+" horiz-adv-x="964" d="M100 473v62h351v350h67v-350h346v-62h-346v-356h-67v356h-351z" />
<glyph unicode="," horiz-adv-x="362" d="M33 -319q156 201 164 352q-6 -6 -40 -6t-57 22q-22 23 -22 62t26 63t69 23q44 0 75 -39t31 -125q0 -87 -68 -191t-154 -170z" />
<glyph unicode="-" horiz-adv-x="518" d="M96 434v109h328v-109h-328z" />
<glyph unicode="." horiz-adv-x="362" d="M88 78q0 40 27 66t67 26t67 -26q25 -26 25 -66t-26 -68q-26 -26 -66 -26q-42 0 -68 26t-26 68z" />
<glyph unicode="/" horiz-adv-x="667" d="M-41 -467l604 2009l62 -20l-605 -2009z" />
<glyph unicode="0" horiz-adv-x="1011" d="M74 410q0 182 128 312t309 130t305 -126t124 -308t-125 -310t-309 -128t-308 124t-124 306zM176 416q0 -152 96 -254t236 -102t236 102q95 102 96 254q0 152 -96 254t-237 102q-143 0 -237 -102t-94 -254z" />
<glyph unicode="1" horiz-adv-x="512" d="M61 0v12l123 86v631l-123 92v10h390v-10l-125 -92v-631l125 -86v-12h-390z" />
<glyph unicode="2" horiz-adv-x="759" d="M61 0v12q213 236 282 360t69 208q0 174 -153 174q-77 0 -153 -90l-12 10q78 176 250 176q104 0 164 -59t61 -168t-67 -204t-269 -296h531l-57 -123h-646z" />
<glyph unicode="3" horiz-adv-x="665" d="M51 -578q203 174 297 304t94 244q0 112 -60 166t-146 54t-140 -24l-12 14q299 270 299 422t-123 152q-90 0 -139 -86l-12 10q17 54 51 94q62 76 161 77t151 -51t52 -156t-87 -193t-197 -170q25 8 65 8q127 0 205 -66t78 -186q0 -180 -142 -332t-383 -295z" />
<glyph unicode="4" horiz-adv-x="942" d="M4 0v12l696 846h13v-762h200v-96h-200v-426l-142 -49v475h-567zM160 96h411v504z" />
<glyph unicode="5" horiz-adv-x="618" d="M-49 -455q406 240 405 486q0 164 -86 314q-20 34 -28 49t-33 50q-25 34 -50 72t-42 55q88 193 137 260h287l-68 -118h-248q-4 -6 -18 -39q289 -338 289 -582q0 -190 -148 -330t-391 -233z" />
<glyph unicode="6" horiz-adv-x="931" d="M104 514q0 178 74 344t192 288t262 204t290 106l6 -16q-274 -92 -473 -354t-199 -603q0 -190 79 -318t170 -128t152 82q61 83 61 205t-67 188q-69 66 -155 66t-174 -52l-11 11q113 113 249 113t219 -82t83 -230t-106 -249t-262 -101t-273 139t-117 387z" />
<glyph unicode="7" horiz-adv-x="899" d="M43 705l55 126h760v-8l-575 -1401l-64 17l516 1266h-692z" />
<glyph unicode="8" horiz-adv-x="831" d="M84 268q0 126 58 216t194 216q-121 121 -169 203t-48 174q0 127 89 211t210 84t203 -75q81 -75 81 -183t-50 -181t-171 -177q0 -4 4 -4q97 -98 141 -150t83 -126q39 -75 39 -148q0 -144 -98 -244t-237 -100q-138 0 -234 78q-95 80 -95 206zM209 289q0 -106 57 -177 q56 -71 148 -72t146 71t54 169t-51 177t-190 207q-164 -158 -164 -375zM242 1124q0 -80 47 -154t160 -186q145 141 145 324q0 100 -46 156t-130 55q-84 1 -130 -57t-46 -138z" />
<glyph unicode="9" horiz-adv-x="931" d="M57 -569q283 104 455 340t172 579q0 188 -83 316t-173 129q-90 0 -148 -83t-58 -201q0 -117 66 -185t152 -68t181 51l8 -8q-31 -39 -99 -77t-157 -38q-129 0 -213 83t-84 229t105 248q105 104 260 104t275 -142t120 -393q0 -177 -65 -335q-121 -292 -421 -457 q-137 -76 -287 -107z" />
<glyph unicode=":" horiz-adv-x="378" d="M94 78q0 40 27 66t67 26t67 -26q26 -26 26 -66t-26 -68q-26 -26 -67 -26q-42 0 -68 26t-26 68zM94 758q0 40 27 66t67 26t67 -26q26 -26 26 -66t-26 -68q-26 -26 -67 -26q-42 0 -68 26t-26 68z" />
<glyph unicode=";" horiz-adv-x="378" d="M53 -319q156 201 164 352q-6 -6 -40 -6q-35 1 -57 23t-22 61t26 63t70 23q44 0 74 -39q31 -39 31 -125q0 -87 -68 -191t-153 -170zM94 758q0 40 27 66t67 26t67 -26q26 -26 26 -66t-26 -68q-26 -26 -67 -26q-42 0 -68 26t-26 68z" />
<glyph unicode="&#x3c;" horiz-adv-x="884" d="M96 475v57l690 265v-62l-614 -231l614 -225v-62z" />
<glyph unicode="=" horiz-adv-x="937" d="M111 379v57h718v-57h-718zM111 553v57h718v-57h-718z" />
<glyph unicode="&#x3e;" horiz-adv-x="884" d="M98 217v62l613 225l-613 231v62l690 -265v-57z" />
<glyph unicode="?" horiz-adv-x="673" d="M70 1163v189q56 24 202 24t243 -56t97 -183q0 -70 -26 -124t-99 -128q-163 -168 -179 -203q-15 -34 -15 -62t8 -184h-25q-78 193 -78 237t15 71q14 27 83 105q69 77 89 101q82 96 82 184t-49 135q-49 46 -126 46t-133 -50t-79 -102h-10zM199 78q1 40 27 66t67 26t67 -26 t25 -66q0 -40 -26 -68q-27 -26 -67 -26t-67 26q-26 27 -26 68z" />
<glyph unicode="@" horiz-adv-x="1783" d="M94 330q0 383 274 654t658 271q316 0 500 -170t184 -396t-110 -381q-110 -156 -281 -224q-172 -68 -373 -53l60 301q-195 -295 -344 -295q-47 0 -88 49q-40 49 -40 138q0 88 34 182q81 227 278 339q115 66 260 80l141 66l-162 -805q177 4 335 129q77 61 124 169t47 228 q0 230 -133 388q-148 178 -479 178q-171 0 -319 -72q-272 -132 -389 -447q-52 -141 -52 -286q-1 -332 191 -527t485 -194q176 0 317 54t228 124l14 -14q-86 -92 -240 -167t-342 -75q-342 0 -560 207t-218 549zM672 238q0 -41 14 -68t31 -27q49 0 142 88t167 201l68 334 q-176 -12 -299 -172t-123 -356z" />
<glyph unicode="A" d="M14 0v12l113 94l491 1280h15l534 -1280l115 -94v-12h-414v12l140 94l-207 494h-414l-190 -496l139 -92v-12h-322zM408 657h370l-192 461z" />
<glyph unicode="B" horiz-adv-x="1142" d="M100 0v12l133 94v1143l-133 94v13h449q181 0 287 -71t106 -214q0 -102 -76 -190t-166 -121q147 -8 256 -98t109 -244q0 -111 -45 -196q-77 -145 -270 -199q-80 -23 -162 -23h-488zM391 92q100 -39 215 -39t206 93t91 246t-95 235t-251 82h-166v-617zM391 766h184 q84 0 151 85t67 202t-73 183q-71 64 -194 64h-8h-127v-534z" />
<glyph unicode="C" horiz-adv-x="1372" d="M86 670q0 184 83 344t251 262t380 102t429 -61v-201h-8q-141 203 -403 203t-409 -184q-147 -183 -147 -455t160 -458q159 -185 401 -185h3q244 0 423 217h11v-180q-187 -97 -449 -97q-315 0 -520 194t-205 499z" />
<glyph unicode="D" horiz-adv-x="1466" d="M98 0v12l135 94v1143l-135 94v13h527q329 0 545 -179t216 -487t-196 -500q-197 -190 -516 -190h-576zM391 109q98 -51 287 -52q240 0 385 167q145 168 145 452t-164 454t-409 170h-244v-1191z" />
<glyph unicode="E" horiz-adv-x="1142" d="M100 0v12l133 94v1143l-133 94v13h881v-228h-12l-129 170h-449v-544h461l86 139h10v-336h-10l-86 137h-461v-635h490l139 209h12v-268h-932z" />
<glyph unicode="F" horiz-adv-x="1083" d="M100 0v12l133 94v1143l-133 94v13h881v-244h-12l-133 186h-445v-542h461l86 137h10v-334h-10l-86 137h-461v-587l199 -97v-12h-490z" />
<glyph unicode="G" horiz-adv-x="1468" d="M86 666q0 296 198 504t523 208q219 0 440 -61v-199h-8q-68 94 -164 148q-94 53 -261 53h-6q-171 0 -299 -92q-245 -176 -247 -543q0 -268 155 -456t410 -189q164 0 297 80v479l-168 94v13h439v-13l-107 -94v-506q-14 -4 -76 -28q-227 -85 -389 -87q-333 0 -535 196 t-202 493z" />
<glyph unicode="H" horiz-adv-x="1570" d="M100 0v12l133 94v1143l-133 94v13h424v-13l-133 -94v-528h791v528l-133 94v13h424v-13l-134 -94v-1143l134 -94v-12h-424v12l133 94v551h-791v-551l133 -94v-12h-424z" />
<glyph unicode="I" horiz-adv-x="624" d="M100 0v12l133 94v1143l-133 94v13h424v-13l-133 -94v-1143l133 -94v-12h-424z" />
<glyph unicode="J" horiz-adv-x="585" d="M20 -438q94 154 144 308t51 390v989l-133 94v13h426v-13l-135 -94v-1052q-1 -147 -97 -333t-235 -317z" />
<glyph unicode="K" horiz-adv-x="1312" d="M100 0v12l133 94v1143l-133 94v13h426v-13l-135 -94v-1143l135 -94v-12h-426zM420 688l545 561l-136 94v13h388v-13l-150 -81l-465 -467l549 -689l156 -94v-12h-476v12l136 94l-480 582h-67z" />
<glyph unicode="L" horiz-adv-x="1132" d="M100 0v12l133 94v1143l-133 94v13h426v-13l-135 -94v-1190h488l163 250h13v-309h-955z" />
<glyph unicode="M" horiz-adv-x="1761" d="M84 0v12l149 105v1075q-41 74 -110 151v13h211l540 -1026l541 1026h232v-13l-136 -92v-1134l152 -105v-12h-459v12l152 105v987l-520 -981h-17l-522 973v-979l152 -105v-12h-365z" />
<glyph unicode="N" horiz-adv-x="1562" d="M76 1343v13h221l971 -1112v995l-148 104v13h371v-13l-152 -104v-1239h-51l-983 1110v-993l146 -105v-12h-369v12l151 105v1075q-94 104 -157 151z" />
<glyph unicode="O" horiz-adv-x="1513" d="M90 666q0 300 193 506t475 206t474 -196q194 -196 194 -494q0 -299 -196 -505t-474 -206t-472 195t-194 494zM268 675q0 -290 140 -464t348 -174q209 0 351 176t142 464t-141 465t-351 177q-209 0 -349 -177t-140 -467z" />
<glyph unicode="P" horiz-adv-x="1095" d="M100 0v12l133 94v1143l-133 94v13h471q201 0 330 -98t129 -292q0 -192 -159 -313q-148 -113 -351 -113q-15 0 -31 1v16q154 19 266 125q111 106 111 268t-93 256t-277 94h-105v-1194l152 -94v-12h-443z" />
<glyph unicode="Q" horiz-adv-x="1511" d="M90 662q0 307 193 512q193 204 475 204t472 -196q191 -196 191 -494q0 -238 -144 -436t-392 -262q408 -188 631 -261t493 -73q129 0 186 14l5 -10q-53 -41 -166 -77t-279 -36q-166 1 -436 103t-729 338q-500 203 -500 674zM268 677q0 -294 142 -467t364 -173 q193 0 334 176t141 466t-141 465t-351 175q-209 0 -349 -174t-140 -468z" />
<glyph unicode="R" horiz-adv-x="1222" d="M100 0v12l133 94v1143l-133 94v13h492q188 0 288 -81t101 -206q0 -125 -75 -212t-175 -134l248 -418q59 -96 144 -189t139 -104v-12q-49 -12 -114 -12q-66 0 -140 45t-156 190l-274 463h-187v-580l156 -94v-12h-447zM391 739h187q104 0 174 84t70 212t-84 197 q-82 68 -206 68h-4h-137v-561z" />
<glyph unicode="S" horiz-adv-x="954" d="M98 385h13q26 -112 86 -206q87 -138 281 -138q102 0 172 72q70 73 71 179q-1 106 -61 182t-212 176t-231 196q-78 96 -78 232q0 131 101 215q102 85 262 85t262 -43v-170h-8q-27 57 -92 106q-66 48 -164 48t-162 -55t-64 -148q0 -57 16 -100t62 -88q45 -45 78 -71 t117 -85t125 -93q135 -112 169 -202q21 -55 21 -121v-6q0 -160 -106 -265t-299 -105t-344 88q-17 122 -17 237q0 41 2 80z" />
<glyph unicode="T" horiz-adv-x="1290" d="M68 1108v248h1155v-248h-13l-135 186h-352v-1183l131 -99v-12h-420v12l131 99v1183h-350l-135 -186h-12z" />
<glyph unicode="U" horiz-adv-x="1462" d="M63 1343v13h426v-13l-133 -94v-770q0 -207 117 -309t308 -102t301 114t110 299v768l-131 94v13h338v-13l-133 -94v-772q0 -225 -144 -362t-378 -137q-236 0 -391 122q-155 123 -154 379v770z" />
<glyph unicode="V" horiz-adv-x="1284" d="M14 1343v13h416v-13l-141 -94l407 -1013l387 1015l-139 92v13h326v-13l-113 -94l-491 -1278h-15l-526 1278z" />
<glyph unicode="W" horiz-adv-x="1918" d="M14 1343v13h420v-13l-145 -94l409 -1034l260 580l-192 454l-113 94v13h373v-13l-102 -94l127 -313l131 313l-105 94v13h291v-13l-115 -94l-170 -393l265 -637l374 1030l-147 94v13h332v-13l-113 -94l-467 -1278h-16l-316 742l-336 -742h-16l-518 1278z" />
<glyph unicode="X" horiz-adv-x="1310" d="M12 0v12l133 94l435 568l-414 575l-135 94v13h458v-13l-137 -94l320 -454l348 456l-137 92v13h348v-13l-131 -94l-389 -508l450 -635l137 -94v-12h-444v12l133 94l-371 515l-389 -515l133 -94v-12h-348z" />
<glyph unicode="Y" horiz-adv-x="1202" d="M14 1343v13h432v-13l-137 -94l346 -526l351 528l-138 92v13h320v-13l-113 -94l-381 -577v-568l133 -92v-12h-426v12l136 92v535l-412 610z" />
<glyph unicode="Z" horiz-adv-x="1284" d="M76 0v18l885 1278h-682l-138 -190h-12v250h1051v-17l-904 -1280h766l156 205h12v-264h-1134z" />
<glyph unicode="[" horiz-adv-x="468" d="M125 -319v1826h301v-41h-182v-1745h182v-40h-301z" />
<glyph unicode="\" horiz-adv-x="665" d="M41 1522l63 20l603 -2009l-60 -20z" />
<glyph unicode="]" horiz-adv-x="468" d="M43 -279h182v1745h-182v41h301v-1826h-301v40z" />
<glyph unicode="^" horiz-adv-x="833" d="M98 680l318 700h2l319 -700l-10 -4l-309 444l-309 -444z" />
<glyph unicode="_" horiz-adv-x="739" d="M-10 -184h760v-62h-760v62z" />
<glyph unicode="`" horiz-adv-x="819" d="M244 1386l114 70l209 -428l-18 -10z" />
<glyph unicode="a" horiz-adv-x="808" d="M95 268q24 35 42 41l67 23q50 16 140 47t172 57v170q0 78 -37 125t-117 47t-133 -69v-115l-145 41v10q43 51 63 73q19 22 69 62q95 78 209 78q113 0 171 -55t57 -137l-8 -531q76 -53 154 -72v-12l-117 -80q-104 39 -162 107q-127 -100 -223 -100t-161 56q-64 57 -64 141 q0 58 23 93zM203 203q0 -53 40 -92t125 -39t146 51q0 41 1 122t1 126q-59 -17 -173 -59t-127 -49t-13 -60z" />
<glyph unicode="b" horiz-adv-x="940" d="M10 1380v17q0 -2 88 32t172 56v-770q33 47 108 92t152 45q172 0 262 -115q89 -114 89 -276q-1 -169 -103 -318q-51 -73 -142 -119q-92 -46 -188 -46t-193 10q-97 12 -126 12v1323zM270 76q78 -37 158 -37q137 0 221 106q84 107 84 271t-70 251q-71 87 -189 87t-204 -86 v-592z" />
<glyph unicode="c" horiz-adv-x="825" d="M55 397q0 189 119 321t324 132q115 0 245 -33v-178h-10q-111 152 -266 152h-2q-121 0 -196 -101q-75 -102 -74 -239q0 -175 99 -273q100 -98 246 -98t242 65l6 -14q-114 -151 -322 -151h-3q-172 0 -290 114t-118 303z" />
<glyph unicode="d" horiz-adv-x="962" d="M176 714q121 138 336 138q104 0 154 -12v485l-136 57v15l43 14q143 49 234 74v-1364l139 -51v-15q-106 -27 -145 -37l-133 -32v108q-41 -45 -110 -80q-67 -34 -117 -34h-3q-168 0 -276 118q-107 117 -107 296q0 182 121 320zM205 420q0 -160 83 -251t202 -91t176 63v609 q-72 45 -158 45q-133 0 -218 -108q-85 -107 -85 -267z" />
<glyph unicode="e" horiz-adv-x="778" d="M56 396q0 190 109 323q110 133 267 133q182 0 260 -173q18 -40 37 -93v-2h-518q-14 -72 -14 -138q0 -172 91 -268t221 -96t230 45l9 -14q-46 -47 -134 -90t-176 -43q-170 0 -276 114t-106 302zM229 639h342q-6 82 -51 118t-96 36q-135 0 -195 -154z" />
<glyph unicode="f" horiz-adv-x="579" d="M35 741v15l129 71v99q0 229 138 384q137 154 344 154h3q104 0 174 -20l-53 -117q-119 66 -209 66q-90 -1 -174 -101t-84 -284v-183h285l-76 -84h-209v-632l168 -97v-12h-432v12l125 86v643h-129z" />
<glyph unicode="g" horiz-adv-x="854" d="M18 -352q0 147 193 309q-123 45 -123 164q0 59 21 76l139 94q-80 37 -128 105t-48 153q0 125 99 213t230 88q66 0 125 -19h312v-69h-209q106 -80 106 -204t-101 -211t-233 -87q-61 0 -106 14q-88 -63 -88 -112q0 -80 96 -80h346q57 0 124 -62t67 -165q0 -168 -152 -299 t-344 -131q-145 0 -235 62t-91 161zM141 -312q0 -78 78 -129q78 -53 200 -53t219 80t97 185q0 174 -205 174h-243l-31 2q-43 -43 -79 -112t-36 -147zM215 556q0 -103 54 -175t134 -72t133 72q52 72 52 174t-52 174t-134 72t-135 -71q-52 -71 -52 -174z" />
<glyph unicode="h" horiz-adv-x="1024" d="M45 0v12l123 84v1227l-121 57v15l33 14q122 49 229 76v-772q147 137 303 137q100 0 176 -62t76 -153v-539l125 -84v-12h-389v12l125 84v494q0 74 -51 123t-151 49t-214 -107v-559l123 -84v-12h-387z" />
<glyph unicode="i" horiz-adv-x="477" d="M45 0v12l123 86v607l-115 55v12l127 49q66 23 127 39v-762l125 -86v-12h-387zM167 1264q27 24 61 24t60 -24q25 -25 25 -62v-3q0 -36 -25 -59q-26 -24 -61 -24t-61 25q-25 24 -25 58q0 39 26 65z" />
<glyph unicode="j" horiz-adv-x="436" d="M6 -506q145 293 146 625v586l-115 53v14l31 13q128 50 225 75v-745q0 -340 -264 -631zM151 1264q27 24 61 24t60 -24q25 -23 25 -59v-3q0 -38 -26 -62q-27 -24 -61 -24t-60 25q-25 24 -25 58q0 39 26 65z" />
<glyph unicode="k" horiz-adv-x="944" d="M45 0v12l123 86v1225l-121 57v15q59 29 260 90v-1387l125 -86v-12h-387zM330 475v12l280 242l-106 92v10h379v-10l-174 -80l-252 -217l202 -260q160 -205 283 -252v-12q-16 -16 -98 -16t-136 39t-141 151z" />
<glyph unicode="l" horiz-adv-x="477" d="M45 0v12l123 86v1225l-121 57v17q2 0 96 35t164 53v-1387l125 -86v-12h-387z" />
<glyph unicode="m" horiz-adv-x="1505" d="M45 0v12l123 86v607l-115 53v14q17 8 27 12t26 10q67 27 201 66v-149q141 141 291 141q74 0 132 -40t85 -112q45 52 130 102t176 50t159 -60t68 -149v-545l122 -86v-12h-387v12l127 86v490q0 76 -43 126t-129 50q-78 0 -150 -57q-22 -18 -61 -54v-555l129 -86v-12h-393 v12l125 86v490q0 76 -43 126t-131 50t-207 -111v-555l127 -86v-12h-389z" />
<glyph unicode="n" horiz-adv-x="1024" d="M45 0v12l123 86v607l-115 53v14q17 8 27 12t26 10q67 27 201 66v-145q147 137 305 137q100 0 176 -61t76 -150v-543l125 -86v-12h-385v12l119 86v490q0 74 -49 123t-154 49t-213 -105v-557l125 -86v-12h-387z" />
<glyph unicode="o" horiz-adv-x="925" d="M55 408q0 184 118 314t289 130t290 -123q118 -123 118 -308t-118 -313t-289 -128q-172 0 -290 122t-118 306zM207 414q0 -162 75 -268t181 -107q106 0 180 106q74 105 74 267t-76 272t-180 111h-2q-103 0 -177 -109q-75 -110 -75 -272z" />
<glyph unicode="p" horiz-adv-x="948" d="M16 -551l123 84v1169l-114 56v14l30 13q67 26 224 73v-143q39 53 111 94t155 41q170 0 258 -114t88 -286t-119 -322q-119 -151 -336 -151q-70 0 -157 9v-453l192 -84v-12h-455v12zM279 76q61 -37 159 -37q137 0 221 106q84 107 84 271t-71 250q-72 86 -191 86t-202 -84 v-592z" />
<glyph unicode="q" horiz-adv-x="950" d="M56 382q0 169 106 311q53 71 146 114q92 43 204 43t223 -21l76 43v-1339l125 -84v-12h-453v12l187 84v563q-36 -49 -100 -83q-62 -33 -122 -33h-4q-188 0 -288 116t-100 286zM203 422q0 -164 83 -255q82 -91 198 -91t182 65v615q-72 35 -160 35q-139 -1 -221 -103 t-82 -266z" />
<glyph unicode="r" horiz-adv-x="686" d="M45 0v12l123 86v607l-115 53v14q115 49 254 88v-176q168 174 244 174q45 0 106 -20l-47 -138q-59 23 -98 23q-102 0 -205 -90v-537l162 -84v-12h-424z" />
<glyph unicode="s" horiz-adv-x="655" d="M66 285h12q25 -98 83 -172t139 -74t123 40t42 104q0 63 -40 103q-41 40 -113 86t-97 64t-57 51q-59 60 -59 157q0 93 70 150q71 58 181 58t170 -27v-155h-12q-16 45 -60 84t-105 39q-60 0 -94 -29t-34 -76q0 -82 68 -127q25 -16 91 -58t102 -69t73 -84t37 -125 q0 -106 -75 -176q-75 -69 -202 -69t-231 49q-14 107 -14 192q0 34 2 64z" />
<glyph unicode="t" horiz-adv-x="702" d="M35 745v15l252 190v-123h397l-55 -82h-342v-522q0 -67 45 -111t138 -44t167 41l8 -15q-109 -112 -245 -112t-194 63t-59 145v555h-112z" />
<glyph unicode="u" horiz-adv-x="995" d="M35 758v14l141 51l115 35v-614q0 -72 46 -121t140 -49t213 102v524l-131 60v14l35 12q38 12 106 32t131 40v-737l138 -51v-15l-144 -37q-29 -8 -82 -20l-53 -14v137q-137 -137 -289 -137q-100 0 -175 64t-74 173v481z" />
<glyph unicode="v" horiz-adv-x="856" d="M2 819v12h381v-12l-123 -82l211 -549l207 549l-127 82v12h305v-12l-106 -82l-273 -714l-12 -37q-10 -33 -14 -41h-17q-7 14 -25 57t-26 59l-279 676z" />
<glyph unicode="w" horiz-adv-x="1292" d="M2 819v12h373v-12l-121 -82l197 -516l172 494l-7 22l-108 82v12h346v-12l-102 -82l184 -514l180 514l-123 82v12h295v-12l-104 -82l-246 -692q-7 -14 -10 -26q-4 -13 -6 -19l-13 -31h-12q-5 14 -20 55q-15 40 -23 64l-197 530l-202 -571q-3 -9 -17 -41t-14 -37h-14 q-8 20 -18 47t-30 68l-258 653z" />
<glyph unicode="x" horiz-adv-x="870" d="M12 0v12l103 86l262 312l-254 327l-100 82v12h385v-12l-123 -82l174 -231l188 231l-125 82v12h307v-12l-102 -86l-231 -274l274 -363l86 -84v-12h-354v12l119 84l-203 260l-221 -260l127 -84v-12h-312z" />
<glyph unicode="y" horiz-adv-x="858" d="M2 819v12h377v-12l-119 -84l217 -538l201 538l-127 84v12h305v-12l-104 -84l-373 -964q-82 -223 -94 -336h-187v10q141 131 234 373l78 200l-306 717z" />
<glyph unicode="z" horiz-adv-x="800" d="M45 0v12l498 768h-318l-119 -151h-12v202h637v-6l-512 -774h393l123 162h13v-213h-703z" />
<glyph unicode="{" horiz-adv-x="575" d="M74 580v36q119 0 178 46t59 120t-77 214q-76 140 -76 202t11 99q30 105 143 176q71 43 175 77l11 -14q-127 -59 -177 -127q-51 -68 -51 -148t72 -222t72 -219t-58 -140t-168 -82q109 -18 167 -80q59 -62 59 -139q0 -75 -72 -225t-72 -233t50 -153t178 -128l-11 -13 q-199 70 -265 156t-66 175q0 88 78 236t77 223q0 75 -59 119t-178 44z" />
<glyph unicode="|" horiz-adv-x="522" d="M227 -479v2001h68v-2001h-68z" />
<glyph unicode="}" horiz-adv-x="573" d="M76 -360q127 58 177 128t50 153t-72 233q-71 150 -71 226t58 137q58 62 167 81q-111 18 -168 82t-57 140q0 77 71 219q72 142 72 222t-50 148t-177 127l10 14q217 -73 276 -168q52 -79 53 -162q1 -84 -76 -224t-77 -215t60 -119t178 -46v-36q-119 0 -178 -44 q-60 -44 -60 -119t78 -222t78 -237t-67 -175q-67 -86 -265 -156z" />
<glyph unicode="~" horiz-adv-x="980" d="M70 375q0 181 95 291q52 59 126 59t208 -85t193 -85q150 0 207 236l12 -3q-8 -143 -66 -244t-165 -102q-70 0 -204 84t-200 84q-139 0 -194 -237z" />
<glyph unicode="&#xa1;" horiz-adv-x="395" d="M104 758q0 42 26 68t67 26t67 -26t27 -68q0 -41 -27 -67q-28 -25 -68 -25t-66 26t-26 66zM119 -520l4 64q11 186 25 355t23 298t15 202h25l68 -919h-160z" />
<glyph unicode="&#xa2;" horiz-adv-x="837" d="M56 406q0 176 113 306q114 130 314 138l17 158h57l-16 -160q119 -8 213 -33v-176h-9q-90 119 -210 145l-72 -700q35 -8 88 -8q141 0 242 65l8 -12q-121 -150 -332 -149h-16l-15 -156h-57l16 162q-147 20 -244 132t-97 288zM195 454q0 -138 57 -228t156 -126l69 691h-4 q-125 1 -201 -99t-77 -238z" />
<glyph unicode="&#xa3;" horiz-adv-x="1013" d="M12 -18q29 43 72 98t63 83q87 122 113 415h-186v61h192q2 27 9 143t14 170q16 180 131 303t278 123q125 0 224 -26v-178h-13q-66 141 -217 141q-119 0 -170 -87t-71 -247l-41 -342h315v-61h-324q-16 -129 -41 -189q-43 -115 -149 -221q67 39 137 39t204 -47t196 -47 q127 0 225 170l10 -4q-27 -127 -99 -209t-165 -82q-66 0 -204 58t-216 58t-140 -34t-132 -99z" />
<glyph unicode="&#xa5;" horiz-adv-x="1110" d="M14 1343v13h426v-13l-137 -94l301 -481l309 483l-135 92v13h316v-13l-111 -94l-332 -518h326v-55h-330v-133h330v-58h-330v-381l133 -92v-12h-422l-4 12l135 92v381h-329v58h329v133h-329v55h303l-336 518z" />
<glyph unicode="&#xa6;" horiz-adv-x="522" d="M227 436h68v-917h-68v917zM227 635v887h68v-887h-68z" />
<glyph unicode="&#xa7;" horiz-adv-x="868" d="M68 640q0 92 58 154t136 85q-74 113 -74 229t84 194q84 76 202 76t171 -14v-178h-12q-51 131 -174 131q-63 0 -111 -47q-48 -46 -49 -116q0 -116 104 -248q39 -48 156 -183q145 -162 203 -252t57 -184q0 -162 -184 -248q59 -100 59 -220t-91 -215t-224 -96q-78 0 -150 20 t-92 38q-16 88 -6 262h12q27 -110 87 -184t150 -74t146 63t56 161t-47 171q-47 74 -121 157t-84 95q-141 152 -202 242q-60 90 -60 181zM174 689q0 -110 150 -272q220 -238 290 -345q96 63 96 164t-90 221q-70 87 -153 178q-176 205 -182 213q-111 -49 -111 -159z" />
<glyph unicode="&#xa8;" horiz-adv-x="819" d="M166 1196q0 34 22 58q22 22 57 22q33 0 57 -23t24 -57t-24 -58q-24 -22 -58 -22t-56 23t-22 57zM498 1196q0 36 22 58t57 22q33 0 57 -23t24 -57t-24 -58q-24 -22 -58 -22t-56 22t-22 58z" />
<glyph unicode="&#xa9;" horiz-adv-x="1572" d="M90 679q0 297 200 499t493 202q292 0 496 -206t204 -497q0 -292 -201 -495q-201 -202 -497 -202q-295 0 -495 202t-200 497zM174 681q0 -265 180 -449t436 -185q256 0 433 183q176 184 176 448q-1 264 -179 450t-437 185q-259 1 -434 -183t-175 -449zM428 682 q0 150 109 258q109 106 276 107q90 0 217 -27v-162h-4q-82 131 -204 131t-190 -85t-67 -212q0 -127 75 -211q76 -84 188 -84t214 125h7v-139q-109 -47 -253 -47t-256 98t-112 248z" />
<glyph unicode="&#xaa;" horiz-adv-x="638" d="M68 916q0 72 51 92q182 51 266 77v111q0 115 -100 115q-33 -1 -59 -17t-33 -28v-76l-115 33v8q115 141 256 141q70 0 117 -42t47 -97l-6 -359q27 -27 100 -53v-8l-88 -55q-55 16 -111 71q-163 -124 -276 -27q-49 42 -49 114zM176 924q0 -36 28 -62t79 -26t100 30 q0 27 1 81t1 83l-192 -59q-17 -10 -17 -47z" />
<glyph unicode="&#xab;" horiz-adv-x="645" d="M43 453l270 315l15 -10l-152 -305l152 -303l-15 -11zM307 453l271 315l14 -10l-152 -305l152 -303l-14 -11z" />
<glyph unicode="&#xad;" horiz-adv-x="518" d="M96 434v109h328v-109h-328z" />
<glyph unicode="&#xae;" horiz-adv-x="802" d="M45 1040q0 152 103 256q102 104 250 105t254 -105t106 -257t-104 -254t-253 -103q-150 0 -253 103t-103 255zM109 1042q0 -128 87 -217q86 -90 208 -90t208 89t86 216q0 126 -85 218t-210 92t-209 -90t-85 -218zM244 874v11l37 28v285l-37 29v10h186q47 0 78 -23 q31 -24 31 -68t-60 -79l58 -96q33 -57 69 -84v-10q-81 -11 -103 7q-21 19 -42 58l-55 100h-41v-129l47 -28v-11h-168zM365 1081h38q19 1 35 17t16 43t-18 42t-43 15h-28v-117z" />
<glyph unicode="&#xaf;" horiz-adv-x="819" d="M215 1100v82h391v-82h-391z" />
<glyph unicode="&#xb0;" horiz-adv-x="489" d="M41 1169q0 85 59 145q60 60 146 60t144 -58t58 -144t-58 -146q-58 -59 -144 -59t-146 58q-59 58 -59 144zM102 1172q0 -66 41 -108t103 -42t102 40q41 40 41 107q0 68 -41 110t-102 42q-60 0 -102 -41q-42 -42 -42 -108z" />
<glyph unicode="&#xb2;" horiz-adv-x="487" d="M18 881v20q197 238 230 295t33 104t-28 76t-75 29q-80 0 -127 -57l-14 6q55 123 182 123q80 0 127 -45t47 -119q1 -74 -65 -152t-203 -194h240l63 90h10v-176h-420z" />
<glyph unicode="&#xb3;" horiz-adv-x="417" d="M12 874q256 92 256 211q0 100 -131 101q-29 0 -57 -4l-6 16q78 41 112 73t35 75q0 63 -76 63q-57 0 -110 -47l-6 8q41 106 168 107q59 0 94 -28t35 -79q0 -76 -109 -121q68 -6 116 -42t48 -103q0 -100 -96 -167t-267 -75z" />
<glyph unicode="&#xb4;" horiz-adv-x="819" d="M252 1028l209 430l114 -72l-305 -368z" />
<glyph unicode="&#xb6;" horiz-adv-x="940" d="M50 1054q0 132 88 217q89 85 251 85h133v-1356h-223v12l133 94v642h-10q-170 0 -271 87t-101 219zM614 0v1356h226v-13l-138 -92v-1145l138 -94v-12h-226z" />
<glyph unicode="&#xb7;" horiz-adv-x="362" d="M88 515q0 42 26 67q26 24 68 24t67 -24t25 -67q0 -42 -26 -69q-26 -26 -66 -26q-42 0 -68 26t-26 69z" />
<glyph unicode="&#xb8;" horiz-adv-x="819" d="M264 -565q201 123 201 217q0 49 -44 76t-91 32l-4 7l29 58q19 39 54 103t35 72h54l-82 -160q59 -14 105 -56t46 -118q-1 -76 -75 -135t-218 -115z" />
<glyph unicode="&#xb9;" horiz-adv-x="337" d="M35 1403v8q10 2 89 31t99 35v-537l74 -51v-8h-256v8l78 51v424z" />
<glyph unicode="&#xba;" horiz-adv-x="692" d="M63 1062q0 126 81 217t201 91t202 -88t82 -212t-82 -217t-203 -93t-201 88t-80 214zM186 1064q0 -106 46 -182t113 -75q67 0 114 76t47 182t-47 183t-114 77t-113 -77q-46 -78 -46 -184z" />
<glyph unicode="&#xbb;" horiz-adv-x="645" d="M53 150l152 303l-152 305l15 10l270 -315l-270 -314zM317 150l152 303l-152 305l15 10l270 -315l-270 -314z" />
<glyph unicode="&#xbc;" horiz-adv-x="1040" d="M39 0l889 1356h73l-888 -1356h-74zM78 1294v9q10 3 89 31t99 34v-537l74 -51v-8h-256v8l78 51v424zM522 156v18l328 414h63v-367h119l-43 -65h-76v-103l68 -47v-6h-240v6l70 47v103h-289zM625 221h186v238z" />
<glyph unicode="&#xbd;" horiz-adv-x="1081" d="M39 0l889 1356h73l-888 -1356h-74zM78 1294v9q10 3 89 31t99 34v-537l74 -51v-8h-256v8l78 51v424zM631 0v20q197 238 229 295q33 57 33 105t-28 76q-28 29 -74 28q-80 0 -127 -57l-15 6q55 123 182 123q80 0 127 -45q48 -45 48 -119t-66 -152t-203 -194h240l63 90h11 v-176h-420z" />
<glyph unicode="&#xbe;" horiz-adv-x="1089" d="M25 0l888 1356h74l-889 -1356h-73zM31 766q256 92 256 211q0 100 -131 100q-29 0 -58 -4l-6 17q78 40 113 72t35 75q0 63 -76 63q-57 0 -111 -47l-6 9q41 106 168 106q59 0 94 -28t35 -78q0 -76 -108 -121q68 -6 116 -42t47 -104q0 -100 -96 -167t-266 -74zM508 156v18 l328 414h63v-367h119l-43 -65h-76v-103l68 -47v-6h-240v6l70 47v103h-289zM610 221h187v238z" />
<glyph unicode="&#xbf;" horiz-adv-x="673" d="M61 -301q0 70 27 124t100 132q159 159 176 197q17 36 17 64t-8 183h24q78 -193 78 -237t-15 -72q-15 -29 -83 -105q-68 -75 -88 -100q-82 -96 -82 -184t49 -134t126 -46t133 50t79 101h10v-188q-56 -25 -202 -25q-146 1 -244 57t-97 183zM289 758q-1 42 25 68t67 26 t67 -26t27 -68q-1 -41 -27 -67q-26 -25 -67 -25t-67 26t-25 66z" />
<glyph unicode="&#xc0;" d="M14 0v12l113 94l491 1280h15l534 -1280l115 -94v-12h-414v12l140 94l-207 494h-414l-190 -496l139 -92v-12h-322zM397 1604l56 112l403 -256l-10 -18zM408 657h370l-192 461z" />
<glyph unicode="&#xc1;" d="M14 0v12l113 94l491 1280h15l534 -1280l115 -94v-12h-414v12l140 94l-207 494h-414l-190 -496l139 -92v-12h-322zM403 1460l404 256l55 -112l-448 -162zM408 657h370l-192 461z" />
<glyph unicode="&#xc2;" d="M14 0v12l113 94l491 1280h15l534 -1280l115 -94v-12h-414v12l140 94l-207 494h-414l-190 -496l139 -92v-12h-322zM344 1466l283 234l274 -234l-8 -14l-266 113l-273 -113zM408 657h370l-192 461z" />
<glyph unicode="&#xc3;" d="M14 0v12l113 94l491 1280h15l534 -1280l115 -94v-12h-414v12l140 94l-207 494h-414l-190 -496l139 -92v-12h-322zM360 1442q86 196 154 196l270 -39q37 0 87 55l27 27t20 19l10 -6q-33 -85 -79 -140t-79 -55q-33 -1 -138 19t-126 20q-49 0 -133 -102zM408 657h370 l-192 461z" />
<glyph unicode="&#xc4;" d="M14 0v12l113 94l491 1280h15l534 -1280l115 -94v-12h-414v12l140 94l-207 494h-414l-190 -496l139 -92v-12h-322zM367 1571q-1 35 23 59t58 23q34 0 58 -24q24 -25 24 -59t-24 -58t-58 -24t-58 24q-23 24 -23 59zM408 657h370l-192 461zM727 1571q0 35 24 59q23 24 57 23 q34 0 58 -24q24 -25 25 -59q0 -34 -25 -58q-24 -24 -58 -24t-58 24t-23 59z" />
<glyph unicode="&#xc5;" d="M14 0v12l113 94l491 1280h15l534 -1280l115 -94v-12h-414v12l140 94l-207 494h-414l-190 -496l139 -92v-12h-322zM408 657h370l-192 461zM469 1588q0 67 46 111t111 44q66 0 110 -44t44 -111q0 -68 -44 -110t-112 -42t-111 42q-44 42 -44 110zM526 1589q0 -43 28 -73 t71 -31q43 0 71 31q28 32 27 74q0 42 -28 73q-29 31 -71 31t-70 -31t-28 -74z" />
<glyph unicode="&#xc6;" horiz-adv-x="1753" d="M-12 0v12l112 94l666 1143l-137 94v13h958v-230h-12l-129 172h-434v-544h444l86 139h10v-334h-10l-86 137h-444v-637h475l141 211h12v-270h-919v12l133 94v553h-354l-324 -555l139 -92v-12h-327zM532 717h322v551z" />
<glyph unicode="&#xc7;" horiz-adv-x="1372" d="M86 648q0 206 83 366t251 262t380 102t429 -61v-201h-8q-141 203 -403 203t-409 -184q-147 -183 -147 -455t160 -458t404 -185q244 0 423 217h11v-180q-187 -97 -449 -97h-14l-70 -137q59 -14 105 -56t47 -118q0 -76 -75 -135t-218 -115l-11 19q201 123 201 217 q0 49 -44 76t-91 32l-4 7q39 78 53 103t28 52l19 39l8 19q-121 10 -225 49q-202 77 -318 245t-116 374z" />
<glyph unicode="&#xc8;" horiz-adv-x="1142" d="M100 0v12l133 94v1143l-133 94v13h881v-228h-12l-129 170h-449v-544h461l86 139h10v-336h-10l-86 137h-461v-635h490l139 209h12v-268h-932zM362 1604l56 112l403 -256l-10 -18z" />
<glyph unicode="&#xc9;" horiz-adv-x="1142" d="M100 0v12l133 94v1143l-133 94v13h881v-228h-12l-129 170h-449v-544h461l86 139h10v-336h-10l-86 137h-461v-635h490l139 209h12v-268h-932zM377 1460l403 256l56 -112l-449 -162z" />
<glyph unicode="&#xca;" horiz-adv-x="1142" d="M100 0v12l133 94v1143l-133 94v13h881v-228h-12l-129 170h-449v-544h461l86 139h10v-336h-10l-86 137h-461v-635h490l139 209h12v-268h-932zM301 1466l283 234l274 -234l-8 -14l-266 113l-273 -113z" />
<glyph unicode="&#xcb;" horiz-adv-x="1142" d="M100 0v12l133 94v1143l-133 94v13h881v-228h-12l-129 170h-449v-544h461l86 139h10v-336h-10l-86 137h-461v-635h490l139 209h12v-268h-932zM330 1571q0 35 24 59t57 23q35 0 59 -24q24 -25 24 -59t-25 -58t-59 -24t-57 24t-23 59zM690 1571q0 35 24 59t58 23 q34 0 58 -24q24 -25 24 -59t-25 -58t-59 -24t-56 24q-24 24 -24 59z" />
<glyph unicode="&#xcc;" horiz-adv-x="624" d="M84 1604l55 112l404 -256l-11 -18zM100 0v12l133 94v1143l-133 94v13h424v-13l-133 -94v-1143l133 -94v-12h-424z" />
<glyph unicode="&#xcd;" horiz-adv-x="624" d="M86 1460l403 256l56 -112l-449 -162zM100 0v12l133 94v1143l-133 94v13h424v-13l-133 -94v-1143l133 -94v-12h-424z" />
<glyph unicode="&#xce;" horiz-adv-x="624" d="M29 1466l282 234l275 -234l-8 -14l-267 113l-272 -113zM100 0v12l133 94v1143l-133 94v13h424v-13l-133 -94v-1143l133 -94v-12h-424z" />
<glyph unicode="&#xcf;" horiz-adv-x="624" d="M49 1571q0 35 24 59q23 24 57 23q34 0 58 -24q24 -25 25 -59q0 -34 -25 -58q-24 -24 -58 -24t-58 24t-23 59zM100 0v12l133 94v1143l-133 94v13h424v-13l-133 -94v-1143l133 -94v-12h-424zM410 1571q0 35 24 59t57 23q35 0 59 -24q24 -25 24 -59t-26 -58q-24 -24 -58 -24 t-57 24t-23 59z" />
<glyph unicode="&#xd0;" horiz-adv-x="1466" d="M51 659v62h180v528l-135 94v13h527q329 0 545 -179t216 -487t-196 -500q-197 -190 -516 -190h-576v12l135 94v553h-180zM389 106l2 3q94 -51 285 -52q240 0 385 167q145 168 145 452t-164 454t-409 170h-244v-579h447v-62h-447v-553z" />
<glyph unicode="&#xd1;" horiz-adv-x="1562" d="M76 1343v13h221l971 -1112v995l-148 104v13h371v-13l-152 -104v-1239h-51l-983 1110v-993l146 -105v-12h-369v12l151 105v1075q-94 104 -157 151zM555 1442q86 196 154 196l270 -39q32 0 87 55q11 11 28 27q16 16 18 19l10 -6q-34 -88 -80 -142q-46 -53 -78 -53 q-32 -1 -138 19t-126 20q-49 0 -133 -102z" />
<glyph unicode="&#xd2;" horiz-adv-x="1513" d="M90 666q0 300 193 506t475 206t474 -196q194 -196 194 -494q0 -299 -196 -505t-474 -206t-472 195t-194 494zM268 675q0 -290 140 -464t348 -174q209 0 351 176t142 464t-141 465t-351 177q-209 0 -349 -177t-140 -467zM528 1604l56 112l403 -256l-10 -18z" />
<glyph unicode="&#xd3;" horiz-adv-x="1513" d="M90 666q0 300 193 506t475 206t474 -196q194 -196 194 -494q0 -299 -196 -505t-474 -206t-472 195t-194 494zM268 675q0 -290 140 -464t348 -174q209 0 351 176t142 464t-141 465t-351 177q-209 0 -349 -177t-140 -467zM532 1460l404 256l55 -112l-448 -162z" />
<glyph unicode="&#xd4;" horiz-adv-x="1513" d="M90 666q0 300 193 506t475 206t474 -196q194 -196 194 -494q0 -299 -196 -505t-474 -206t-472 195t-194 494zM268 675q0 -290 140 -464t348 -174q209 0 351 176t142 464t-141 465t-351 177q-209 0 -349 -177t-140 -467zM475 1466l283 234l274 -234l-8 -14l-266 113 l-273 -113z" />
<glyph unicode="&#xd5;" horiz-adv-x="1513" d="M90 666q0 300 193 506t475 206t474 -196q194 -196 194 -494q0 -299 -196 -505t-474 -206t-472 195t-194 494zM268 675q0 -290 140 -464t348 -174q209 0 351 176t142 464t-141 465t-351 177q-209 0 -349 -177t-140 -467zM475 1442q86 196 154 196l270 -39q32 0 87 55 q11 11 28 27q16 16 18 19l10 -6q-34 -88 -80 -142q-46 -53 -78 -53q-32 -1 -138 19t-125 20q-49 0 -134 -102z" />
<glyph unicode="&#xd6;" horiz-adv-x="1513" d="M90 666q0 300 193 506t475 206t474 -196q194 -196 194 -494q0 -299 -196 -505t-474 -206t-472 195t-194 494zM268 675q0 -290 140 -464t348 -174q209 0 351 176t142 464t-141 465t-351 177q-209 0 -349 -177t-140 -467zM496 1571q0 35 24 59t57 23q35 0 59 -24 q24 -25 24 -59t-26 -58q-24 -24 -58 -24t-57 24t-23 59zM856 1571q0 35 24 59t58 23q34 0 58 -24q24 -25 24 -59t-25 -58t-59 -24t-56 24q-24 24 -24 59z" />
<glyph unicode="&#xd7;" horiz-adv-x="856" d="M111 219l274 281l-274 282l45 43l272 -280l274 280l43 -41l-274 -282l274 -283l-43 -43l-274 281l-272 -281z" />
<glyph unicode="&#xd8;" horiz-adv-x="1513" d="M90 662q0 304 193 510t475 206q195 0 346 -96l104 162l49 -29l-104 -166q272 -205 272 -561q1 -299 -195 -505t-474 -206q-199 0 -355 101l-125 -197l-49 33l125 197q-262 199 -262 551zM268 675q0 -290 144 -470l641 995q-129 119 -295 119q-210 0 -350 -177t-140 -467z M455 160q127 -123 301 -123q209 0 351 176t142 467t-155 477z" />
<glyph unicode="&#xd9;" horiz-adv-x="1462" d="M63 1343v13h426v-13l-133 -94v-770q0 -207 117 -309t308 -102t301 114t110 299v768l-131 94v13h338v-13l-133 -94v-772q0 -225 -144 -362t-378 -137q-236 0 -391 122q-155 123 -154 379v770zM549 1604l55 112l404 -256l-11 -18z" />
<glyph unicode="&#xda;" horiz-adv-x="1462" d="M63 1343v13h426v-13l-133 -94v-770q0 -207 117 -309t308 -102t301 114t110 299v768l-131 94v13h338v-13l-133 -94v-772q0 -225 -144 -362t-378 -137q-236 0 -391 122q-155 123 -154 379v770zM567 1460l404 256l55 -112l-448 -162z" />
<glyph unicode="&#xdb;" horiz-adv-x="1462" d="M63 1343v13h426v-13l-133 -94v-770q0 -207 117 -309t308 -102t301 114t110 299v768l-131 94v13h338v-13l-133 -94v-772q0 -225 -144 -362t-378 -137q-236 0 -391 122q-155 123 -154 379v770zM508 1466l283 234l274 -234l-8 -14l-266 113l-273 -113z" />
<glyph unicode="&#xdc;" horiz-adv-x="1462" d="M63 1343v13h426v-13l-133 -94v-770q0 -207 117 -309t308 -102t301 114t110 299v768l-131 94v13h338v-13l-133 -94v-772q0 -225 -144 -362t-378 -137q-236 0 -391 122q-155 123 -154 379v770zM526 1571q0 35 24 59t58 23q34 0 58 -24q24 -25 24 -59t-24 -58t-59 -24 q-33 0 -57 24t-24 59zM887 1571q-1 35 23 59t58 23q34 0 58 -24q24 -25 25 -59q0 -34 -25 -58q-24 -24 -58 -24t-58 24q-23 24 -23 59z" />
<glyph unicode="&#xdd;" horiz-adv-x="1202" d="M14 1343v13h432v-13l-137 -94l346 -526l351 528l-138 92v13h320v-13l-113 -94l-381 -577v-568l133 -92v-12h-426v12l136 92v535l-412 610zM461 1460l403 256l56 -112l-449 -162z" />
<glyph unicode="&#xde;" horiz-adv-x="1112" d="M100 0v12l133 94v1143l-133 94v13h426v-13l-133 -94v-223h182q203 0 335 -70t132 -232t-160 -255q-160 -94 -393 -90v18q212 28 323 147q67 71 67 165q0 262 -381 262h-105v-865l131 -94v-12h-424z" />
<glyph unicode="&#xdf;" horiz-adv-x="1026" d="M39 0v12l125 86v643h-121v15l121 71v97q0 236 121 389t301 153q130 0 202 -68t72 -177q0 -68 -42 -135q-42 -66 -92 -110q-134 -117 -134 -192q0 -38 24 -74t46 -54q20 -18 120 -98t148 -144q49 -64 49 -169q0 -106 -79 -186q-79 -79 -205 -79t-222 55q-16 90 -12 233h14 q76 -227 225 -227q70 0 114 51q44 52 44 120t-36 112t-139 126q-103 83 -146 137q-43 53 -43 121t36 128t81 106q44 45 81 118q37 74 37 160t-50 134t-128 49q-109 0 -177 -97t-69 -300v-908l117 -86v-12h-383z" />
<glyph unicode="&#xe0;" horiz-adv-x="808" d="M72 178q0 55 23 90q24 35 42 41l67 23q50 16 140 47t172 57v170q0 78 -37 125t-117 47t-133 -69v-115l-145 41v10q43 51 63 73q19 22 69 62q95 78 209 78q113 0 171 -55t57 -137l-8 -531q76 -53 154 -72v-12l-117 -80q-104 39 -162 107q-127 -100 -223 -100t-161 56 q-65 58 -64 144zM168 1386l115 70l209 -428l-19 -10zM203 203q0 -53 40 -92t125 -39t146 51q0 41 1 122t1 126q-59 -17 -173 -59t-127 -49t-13 -60z" />
<glyph unicode="&#xe1;" horiz-adv-x="808" d="M72 178q0 55 23 90q24 35 42 41l67 23q50 16 140 47t172 57v170q0 78 -37 125t-117 47t-133 -69v-115l-145 41v10q43 51 63 73q19 22 69 62q95 78 209 78q113 0 171 -55t57 -137l-8 -531q76 -53 154 -72v-12l-117 -80q-104 39 -162 107q-127 -100 -223 -100t-161 56 q-65 58 -64 144zM203 203q0 -53 40 -92t125 -39t146 51q0 41 1 122t1 126q-59 -17 -173 -59t-127 -49t-13 -60zM279 1028l208 430l115 -72l-305 -368z" />
<glyph unicode="&#xe2;" horiz-adv-x="808" d="M72 178q0 55 23 90q24 35 42 41l67 23q50 16 140 47t172 57v170q0 78 -37 125t-117 47t-133 -69v-115l-145 41v10q43 51 63 73q19 22 69 62q95 78 209 78q113 0 171 -55t57 -137l-8 -531q76 -53 154 -72v-12l-117 -80q-104 39 -162 107q-127 -100 -223 -100t-161 56 q-65 58 -64 144zM178 1006l209 438l209 -438l-16 -11l-193 232l-192 -232zM203 203q0 -53 40 -92t125 -39t146 51q0 41 1 122t1 126q-59 -17 -173 -59t-127 -49t-13 -60z" />
<glyph unicode="&#xe3;" horiz-adv-x="808" d="M72 178q0 55 23 90q24 35 42 41l67 23q50 16 140 47t172 57v170q0 78 -37 125t-117 47t-133 -69v-115l-145 41v10q43 51 63 73q19 22 69 62q95 78 209 78q113 0 171 -55t57 -137l-8 -531q76 -53 154 -72v-12l-117 -80q-104 39 -162 107q-127 -100 -223 -100t-161 56 q-65 58 -64 144zM150 1049q70 196 135 196q27 -1 122 -27t115 -26q39 0 117 104l14 -6q-20 -63 -61 -131q-41 -67 -75 -67t-125 26t-111 27q-35 0 -117 -103zM203 203q0 -53 40 -92t125 -39t146 51q0 41 1 122t1 126q-59 -17 -173 -59t-127 -49t-13 -60z" />
<glyph unicode="&#xe4;" horiz-adv-x="808" d="M72 178q0 55 23 90q24 35 42 41l67 23q50 16 140 47t172 57v170q0 78 -37 125t-117 47t-133 -69v-115l-145 41v10q43 51 63 73q19 22 69 62q95 78 209 78q113 0 171 -55t57 -137l-8 -531q76 -53 154 -72v-12l-117 -80q-104 39 -162 107q-127 -100 -223 -100t-161 56 q-65 58 -64 144zM145 1196q1 34 23 58q22 22 56 22t58 -23t24 -57t-24 -58q-24 -22 -58 -22t-56 23t-23 57zM203 203q0 -53 40 -92t125 -39t146 51q0 41 1 122t1 126q-59 -17 -173 -59t-127 -49t-13 -60zM477 1196q0 36 23 58q22 22 56 22t58 -23t23 -57q0 -34 -24 -58 q-23 -22 -57 -22t-56 22t-23 58z" />
<glyph unicode="&#xe5;" horiz-adv-x="808" d="M72 176q0 55 23 90q24 35 42 41l67 23q50 16 140 47t172 57v170q0 78 -37 125t-117 47t-133 -69v-115l-145 41v10q43 51 63 73q19 22 69 62q95 78 209 78q113 0 171 -55t57 -137l-8 -531q76 -53 154 -72v-12l-117 -80q-104 39 -162 107q-127 -100 -223 -100t-161 56 q-65 58 -64 144zM203 201q0 -53 40 -92t125 -39t146 51q0 41 1 122t1 126q-59 -17 -173 -59t-127 -49t-13 -60zM229 1175q0 67 46 111t111 43q65 0 110 -44q45 -45 45 -111t-44 -109t-112 -43t-112 43t-44 110zM287 1176q-1 -43 27 -74t71 -31t71 31t27 74q1 44 -27 74 t-71 30t-71 -30t-27 -74z" />
<glyph unicode="&#xe6;" horiz-adv-x="1206" d="M68 186q0 98 63 133q14 7 155 55q140 48 216 75l2 161q0 168 -146 168q-82 0 -135 -69v-115l-143 41v10q112 131 190 172q77 41 154 41q78 0 131 -34t74 -89q117 117 243 117q209 0 299 -221v-4l-528 -193q4 -162 93 -257t209 -95t220 45l9 -14q-48 -47 -132 -90 t-172 -43q-186 0 -288 145q-135 -147 -256 -147t-190 54q-68 56 -68 154zM199 206q1 -58 39 -96t127 -38t194 90q-53 94 -57 227q-190 -86 -283 -113q-20 -12 -20 -70zM645 494l365 143q-8 61 -48 109t-104 47q-64 0 -134 -80t-79 -219z" />
<glyph unicode="&#xe7;" horiz-adv-x="825" d="M55 401q0 185 119 317t324 132q115 0 245 -33v-178h-10q-111 152 -266 152q-123 1 -198 -101t-74 -239q0 -175 99 -273q100 -98 246 -98t242 65l6 -14q-82 -106 -210 -137q-41 -10 -105 -14l-72 -140q59 -14 105 -56t47 -118q0 -76 -75 -135t-218 -115l-10 19 q201 123 201 217q0 49 -44 76t-92 32l-4 7q44 87 56 107t25 48q14 27 18 35l6 12t4 7t2 6q-199 18 -299 171q-68 101 -68 248z" />
<glyph unicode="&#xe8;" horiz-adv-x="778" d="M56 396q0 190 109 323q110 133 267 133q182 0 260 -173q18 -40 37 -93v-2h-518q-14 -72 -14 -138q0 -172 91 -268t221 -96t230 45l9 -14q-46 -47 -134 -90t-176 -43q-170 0 -276 114t-106 302zM188 1386l115 70l209 -428l-18 -10zM229 639h342q-6 82 -51 118t-96 36 q-135 0 -195 -154z" />
<glyph unicode="&#xe9;" horiz-adv-x="778" d="M56 396q0 190 109 323q110 133 267 133q182 0 260 -173q18 -40 37 -93v-2h-518q-14 -72 -14 -138q0 -172 91 -268t221 -96t230 45l9 -14q-46 -47 -134 -90t-176 -43q-170 0 -276 114t-106 302zM229 639h342q-6 82 -51 118t-96 36q-135 0 -195 -154zM313 1028l209 430 l115 -72l-305 -368z" />
<glyph unicode="&#xea;" horiz-adv-x="778" d="M56 396q0 190 109 323q110 133 267 133q182 0 260 -173q18 -40 37 -93v-2h-518q-14 -72 -14 -138q0 -172 91 -268t221 -96t230 45l9 -14q-46 -47 -134 -90t-176 -43q-170 0 -276 114t-106 302zM199 1006l209 438l208 -438l-16 -11l-192 232l-193 -232zM229 639h342 q-6 82 -51 118t-96 36q-135 0 -195 -154z" />
<glyph unicode="&#xeb;" horiz-adv-x="778" d="M56 396q0 190 109 323q110 133 267 133q182 0 260 -173q18 -40 37 -93v-2h-518q-14 -72 -14 -138q0 -172 91 -268t221 -96t230 45l9 -14q-46 -47 -134 -90t-176 -43q-170 0 -276 114t-106 302zM166 1196q0 34 22 58q22 22 57 22q33 0 57 -23t24 -57t-24 -58 q-24 -22 -58 -22t-56 23t-22 57zM229 639h342q-6 82 -51 118t-96 36q-135 0 -195 -154zM498 1196q0 36 22 58t57 22q33 0 57 -23t24 -57t-24 -58q-24 -22 -58 -22t-56 22t-22 58z" />
<glyph unicode="&#xec;" horiz-adv-x="477" d="M-4 1386l115 70l208 -428l-18 -10zM45 0v12l123 86v607l-115 55v12l127 49q66 23 127 39v-762l125 -86v-12h-387z" />
<glyph unicode="&#xed;" horiz-adv-x="477" d="M45 0v12l123 86v607l-115 55v12l127 49q66 23 127 39v-762l125 -86v-12h-387zM139 1028l209 430l115 -72l-305 -368z" />
<glyph unicode="&#xee;" horiz-adv-x="477" d="M14 1006l209 438l209 -438l-16 -11l-193 232l-192 -232zM45 0v12l123 86v607l-115 55v12l127 49q66 23 127 39v-762l125 -86v-12h-387z" />
<glyph unicode="&#xef;" horiz-adv-x="477" d="M2 1192q0 32 22 56t54 24t56 -24t24 -56t-24 -54t-56 -22t-54 22t-22 54zM45 0v12l123 86v607l-115 55v12l127 49q66 23 127 39v-762l125 -86v-12h-387zM309 1192q1 34 21 56t53 22t55 -23t21 -55q0 -32 -22 -53q-23 -21 -55 -21t-52 20t-21 54z" />
<glyph unicode="&#xf0;" horiz-adv-x="933" d="M53 412q0 192 109 312q110 120 272 120t250 -84q-61 225 -242 422l-292 -176l-27 45l283 170q-150 150 -340 235l4 17q231 -57 419 -203l207 125l27 -45l-191 -115q334 -285 334 -707q0 -240 -118 -394t-281 -154q-164 0 -289 120t-125 312zM206 424q0 -162 82 -274 q81 -112 182 -111t176 135t75 322q0 72 -14 168q-88 119 -240 118q-121 0 -191 -98t-70 -260z" />
<glyph unicode="&#xf1;" horiz-adv-x="1024" d="M45 0v12l123 86v607l-115 53v14q17 8 27 12t26 10q67 27 201 66v-145q147 137 305 137q100 0 176 -61t76 -150v-543l125 -86v-12h-385v12l119 86v490q0 74 -49 123t-154 49t-213 -105v-557l125 -86v-12h-387zM272 1049q25 70 62 133t69 63q33 -1 127 -27t115 -26 q39 0 117 104l14 -6q-20 -63 -61 -131q-41 -67 -75 -67t-125 26t-112 27q-35 0 -116 -103z" />
<glyph unicode="&#xf2;" horiz-adv-x="925" d="M55 408q0 184 118 314t289 130t290 -123q118 -123 118 -308t-118 -313t-289 -128q-172 0 -290 122t-118 306zM207 414q0 -162 75 -268t181 -107q106 0 180 106q74 105 74 267t-76 272t-180 111t-179 -109t-75 -272zM219 1386l115 70l209 -428l-19 -10z" />
<glyph unicode="&#xf3;" horiz-adv-x="925" d="M55 408q0 184 118 314t289 130t290 -123q118 -123 118 -308t-118 -313t-289 -128q-172 0 -290 122t-118 306zM207 414q0 -162 75 -268t181 -107q106 0 180 106q74 105 74 267t-76 272t-180 111t-179 -109t-75 -272zM352 1028l209 430l115 -72l-305 -368z" />
<glyph unicode="&#xf4;" horiz-adv-x="925" d="M55 408q0 184 118 314t289 130t290 -123q118 -123 118 -308t-118 -313t-289 -128q-172 0 -290 122t-118 306zM207 414q0 -162 75 -268t181 -107q106 0 180 106q74 105 74 267t-76 272t-180 111t-179 -109t-75 -272zM250 1006l209 438l209 -438l-17 -11l-192 232 l-193 -232z" />
<glyph unicode="&#xf5;" horiz-adv-x="925" d="M55 408q0 184 118 314t289 130t290 -123q118 -123 118 -308t-118 -313t-289 -128q-172 0 -290 122t-118 306zM207 414q0 -162 75 -268t181 -107q106 0 180 106q74 105 74 267t-76 272t-180 111t-179 -109t-75 -272zM209 1049q70 196 135 196q27 -1 122 -27t116 -26 q39 0 116 104l15 -6q-19 -63 -61 -131q-42 -67 -76 -67t-124 26t-112 27q-35 0 -117 -103z" />
<glyph unicode="&#xf6;" horiz-adv-x="925" d="M55 408q0 184 118 314t289 130t290 -123q118 -123 118 -308t-118 -313t-289 -128q-172 0 -290 122t-118 306zM207 414q0 -162 75 -268t181 -107q106 0 180 106q74 105 74 267t-76 272t-180 111t-179 -109t-75 -272zM215 1196q1 34 23 58q22 22 56 22t58 -23t23 -57 q0 -34 -24 -58q-23 -22 -57 -22t-56 23t-23 57zM547 1196q1 36 23 58t56 22t58 -23t23 -57q0 -34 -24 -58q-23 -22 -57 -22t-56 22t-23 58z" />
<glyph unicode="&#xf7;" horiz-adv-x="956" d="M100 473v62h758v-62h-758zM389 178q0 39 27 65q28 25 64 25t62 -26t26 -64t-28 -64q-26 -26 -62 -26t-62 26t-27 64zM389 815q0 39 27 66q28 27 64 27t62 -28q26 -26 26 -65t-26 -63t-63 -25q-37 1 -63 25t-27 63z" />
<glyph unicode="&#xf8;" horiz-adv-x="925" d="M53 396q0 196 119 325t291 129q113 0 207 -57l96 149l49 -29l-98 -155q153 -126 153 -324t-118 -326t-289 -128q-113 0 -207 57l-102 -160l-54 31l107 164q-154 128 -154 324zM211 424q0 -152 55 -258l355 553q-70 76 -166 76q-96 1 -170 -109t-74 -262zM303 113 q68 -74 167 -74q99 1 174 107t75 262t-62 260z" />
<glyph unicode="&#xf9;" horiz-adv-x="995" d="M35 758v14l141 51l115 35v-614q0 -72 46 -121t140 -49t213 102v524l-131 60v14l35 12q38 12 106 32t131 40v-737l138 -51v-15l-144 -37q-29 -8 -82 -20l-53 -14v137q-137 -137 -289 -137q-100 0 -175 64t-74 173v481zM248 1386l114 70l209 -428l-18 -10z" />
<glyph unicode="&#xfa;" horiz-adv-x="995" d="M35 758v14l141 51l115 35v-614q0 -72 46 -121t140 -49t213 102v524l-131 60v14l35 12q38 12 106 32t131 40v-737l138 -51v-15l-144 -37q-29 -8 -82 -20l-53 -14v137q-137 -137 -289 -137q-100 0 -175 64t-74 173v481zM401 1028l209 430l115 -72l-305 -368z" />
<glyph unicode="&#xfb;" horiz-adv-x="995" d="M35 758v14l141 51l115 35v-614q0 -72 46 -121t140 -49t213 102v524l-131 60v14l35 12q38 12 106 32t131 40v-737l138 -51v-15l-144 -37q-29 -8 -82 -20l-53 -14v137q-137 -137 -289 -137q-100 0 -175 64t-74 173v481zM266 1006l209 438l209 -438l-16 -11l-193 232 l-192 -232z" />
<glyph unicode="&#xfc;" horiz-adv-x="995" d="M35 758v14l141 51l115 35v-614q0 -72 46 -121t140 -49t213 102v524l-131 60v14l35 12q38 12 106 32t131 40v-737l138 -51v-15l-144 -37q-29 -8 -82 -20l-53 -14v137q-137 -137 -289 -137q-100 0 -175 64t-74 173v481zM233 1196q1 34 23 58q22 22 56 22t58 -23t24 -57 t-24 -58q-24 -22 -58 -22t-56 23t-23 57zM565 1196q0 36 23 58q22 22 56 22t58 -23t23 -57q0 -34 -24 -58q-23 -22 -57 -22t-56 22t-23 58z" />
<glyph unicode="&#xfd;" horiz-adv-x="858" d="M2 819v12h377v-12l-119 -84l217 -538l201 538l-127 84v12h305v-12l-104 -84l-373 -964q-82 -223 -94 -336h-187v10q141 131 234 373l78 200l-306 717zM373 1028l209 430l114 -72l-305 -368z" />
<glyph unicode="&#xfe;" horiz-adv-x="937" d="M6 -551l125 82v1790l-119 59v16q2 0 84 32t174 57v-768q41 53 113 94t154 41q168 0 256 -114t88 -285q0 -252 -196 -397q-108 -79 -257 -79q-74 0 -158 9v-455l191 -82v-12h-455v12zM12 1396v1v-1zM270 78q61 -39 160 -39q137 0 220 106q83 105 83 269t-71 250 q-72 86 -191 86t-201 -82v-590z" />
<glyph unicode="&#xff;" horiz-adv-x="858" d="M2 819v12h377v-12l-119 -84l217 -538l201 538l-127 84v12h305v-12l-104 -84l-373 -964q-82 -223 -94 -336h-187v10q141 131 234 373l78 200l-306 717zM210 1196q0 34 24 58q22 22 56 22t58 -23t23 -57q0 -34 -24 -58q-23 -22 -57 -22t-57 23t-23 57zM543 1196q1 36 23 58 t56 22t58 -23t22 -57q0 -34 -24 -58q-24 -22 -56 -22q-34 0 -56 22t-23 58z" />
<glyph unicode="&#x152;" horiz-adv-x="1865" d="M84 664q0 292 205 492t506 200h905v-230h-12l-129 172h-437v-544h447l86 139h10v-334h-10l-86 137h-447v-637h480l139 211h12v-270h-958q-299 0 -505 186t-206 478zM262 678q0 -280 153 -450q153 -169 380 -169h170v1239h-172q-231 0 -381 -170t-150 -450z" />
<glyph unicode="&#x153;" horiz-adv-x="1433" d="M55 408q0 182 115 313t281 131q98 0 184 -48t141 -132q55 84 137 132t162 48q147 0 220 -90q51 -65 89 -176v-2h-518q-16 -66 -16 -138q0 -172 92 -268t222 -96t231 45l8 -14q-47 -47 -134 -90t-175 -43q-219 0 -328 174q-125 -174 -302 -174t-293 122t-116 306zM209 415 q0 -159 71 -269t170 -110t173 110q73 108 73 266t-74 270t-171 113q-98 -1 -170 -111t-72 -269zM883 639h344q-6 82 -51 118q-46 36 -97 36q-133 0 -196 -154z" />
<glyph unicode="&#x178;" horiz-adv-x="1202" d="M14 1343v13h432v-13l-137 -94l346 -526l351 528l-138 92v13h320v-13l-113 -94l-381 -577v-568l133 -92v-12h-426v12l136 92v535l-412 610zM391 1571q0 35 24 59q23 24 57 23q34 0 58 -24q24 -25 25 -59q0 -34 -25 -58q-24 -24 -58 -24t-58 24t-23 59zM752 1571 q0 35 24 59t57 23q35 0 59 -24q24 -25 24 -59t-26 -58q-24 -24 -58 -24t-57 24t-23 59z" />
<glyph unicode="&#x2c6;" horiz-adv-x="819" d="M201 1006l209 438l208 -438l-16 -11l-192 232l-193 -232z" />
<glyph unicode="&#x2dc;" horiz-adv-x="819" d="M158 1049q70 196 135 196q27 -1 122 -27t115 -26q39 0 117 104l15 -6q-20 -63 -62 -131q-42 -67 -75 -67q-34 0 -125 26t-111 27q-35 0 -117 -103z" />
<glyph unicode="&#x2000;" horiz-adv-x="871" />
<glyph unicode="&#x2001;" horiz-adv-x="1743" />
<glyph unicode="&#x2002;" horiz-adv-x="871" />
<glyph unicode="&#x2003;" horiz-adv-x="1743" />
<glyph unicode="&#x2004;" horiz-adv-x="581" />
<glyph unicode="&#x2005;" horiz-adv-x="435" />
<glyph unicode="&#x2006;" horiz-adv-x="290" />
<glyph unicode="&#x2007;" horiz-adv-x="290" />
<glyph unicode="&#x2008;" horiz-adv-x="217" />
<glyph unicode="&#x2009;" horiz-adv-x="348" />
<glyph unicode="&#x200a;" horiz-adv-x="96" />
<glyph unicode="&#x2010;" horiz-adv-x="518" d="M96 434v109h328v-109h-328z" />
<glyph unicode="&#x2011;" horiz-adv-x="518" d="M96 434v109h328v-109h-328z" />
<glyph unicode="&#x2012;" horiz-adv-x="518" d="M96 434v109h328v-109h-328z" />
<glyph unicode="&#x2013;" horiz-adv-x="933" d="M94 463v61h746v-61h-746z" />
<glyph unicode="&#x2014;" horiz-adv-x="1486" d="M94 463v61h1299v-61h-1299z" />
<glyph unicode="&#x2018;" horiz-adv-x="329" d="M55 1082q0 76 55 172q54 95 144 171l20 -8q-129 -168 -139 -327q8 4 40 4t52 -22q21 -22 21 -56t-24 -56t-66 -22t-73 34q-30 34 -30 110z" />
<glyph unicode="&#x2019;" horiz-adv-x="329" d="M53 940q129 168 140 328q-8 -4 -40 -4t-53 21q-20 21 -20 55t23 57q24 23 61 22q108 -1 108 -145q0 -76 -54 -171t-144 -171z" />
<glyph unicode="&#x201a;" horiz-adv-x="327" d="M53 -291q129 168 140 328q-8 -4 -40 -4t-53 21q-20 22 -20 56t23 56q24 23 61 22q108 0 108 -144q0 -76 -54 -172q-54 -95 -144 -171z" />
<glyph unicode="&#x201c;" horiz-adv-x="614" d="M55 1082q0 76 55 172q54 95 144 171l20 -8q-129 -168 -139 -327q8 4 40 4t52 -22q21 -22 21 -56t-24 -56t-66 -22t-73 34q-30 34 -30 110zM340 1082q0 76 54 172q54 95 145 171l20 -8q-129 -168 -139 -327q8 4 40 4t52 -22t20 -56t-24 -56t-66 -22t-72 34t-30 110z" />
<glyph unicode="&#x201d;" horiz-adv-x="614" d="M53 940q129 168 140 328q-8 -4 -40 -4t-53 21q-20 21 -20 55t23 57q24 23 61 22q108 -1 108 -145q0 -76 -54 -171t-144 -171zM338 940q135 184 137 328q-4 -4 -38 -4t-54 22q-21 22 -21 54q0 34 25 57t62 22q108 -1 108 -145q0 -76 -54 -171t-145 -171z" />
<glyph unicode="&#x201e;" horiz-adv-x="618" d="M53 -291q129 168 140 328q-8 -4 -40 -4t-53 21q-20 22 -20 56t23 56q24 23 61 22q108 0 108 -144q0 -76 -54 -172q-54 -95 -144 -171zM338 -291q135 184 137 328q-4 -4 -38 -4q-34 -1 -54 21q-21 22 -21 56t25 56q25 23 62 22q108 0 108 -144q0 -76 -54 -172 q-54 -95 -145 -171z" />
<glyph unicode="&#x2022;" horiz-adv-x="653" d="M125 504q0 86 58 145q57 59 143 59t144 -60t58 -145t-57 -143t-143 -59q-86 0 -145 58q-58 59 -58 145z" />
<glyph unicode="&#x2026;" horiz-adv-x="1122" d="M90 78q0 40 27 66t67 26t67 -26q25 -26 25 -66t-26 -68q-26 -26 -66 -26q-42 0 -68 26t-26 68zM469 78q0 40 27 66q28 26 68 26t66 -26t26 -66t-26 -68q-26 -26 -67 -26t-67 26t-27 68zM848 78q0 40 26 66t68 26q41 0 67 -26q25 -26 25 -66t-26 -68q-26 -26 -66 -26 q-41 0 -68 26q-26 27 -26 68z" />
<glyph unicode="&#x202f;" horiz-adv-x="348" />
<glyph unicode="&#x2039;" horiz-adv-x="409" d="M45 457l299 311l12 -12l-168 -299l168 -305l-12 -13z" />
<glyph unicode="&#x203a;" horiz-adv-x="409" d="M51 152l168 305l-168 299l12 12l299 -311l-299 -318z" />
<glyph unicode="&#x205f;" horiz-adv-x="435" />
<glyph unicode="&#x20ac;" horiz-adv-x="1161" d="M4 582v55h154v37q0 31 4 96h-158v57h166q39 238 190 395q152 157 381 156q156 0 303 -37v-190h-10q-115 166 -313 166q-160 0 -257 -134t-124 -356h512v-57h-516q-2 -25 -2 -76v-57h518v-55h-514q25 -248 146 -392q122 -143 290 -143t287 176h12v-180q-135 -63 -305 -63 q-236 0 -407 162t-199 440h-158z" />
<glyph unicode="&#x2122;" horiz-adv-x="1239" d="M8 1229v127h471v-125h-8l-59 82h-123v-453l61 -41v-10h-211v10l58 41v453h-121l-58 -84h-10zM526 809v10l68 43v434q-29 29 -57 50v10h145l190 -375l197 375h143v-8l-61 -43v-443l61 -43v-10h-215v10l62 43v373l-199 -377h-20l-197 375v-371l68 -43v-10h-185z" />
<glyph unicode="&#x25fc;" horiz-adv-x="830" d="M0 0v830h830v-830h-830z" />
</font>
</defs>
</svg>
