<svg id="Layer_1" data-name="Layer 1" xmlns="http://www.w3.org/2000/svg" viewBox="0 0 120.55 175.79">
  <defs>
    <style>
      .cls-1 {
        fill: #ff6fbc;
      }

      .cls-2 {
        fill: #6b66c4;
      }

      .cls-3 {
        fill: #5ecaeb;
      }
    </style>
  </defs>
  <title>numStock2</title>
  <g>
    <path class="cls-1" d="M104,138.29H76.15L42.1,176A20.83,20.83,0,0,1,28,182.79c.48,0,1,.05,1.45.05H104a22.28,22.28,0,1,0,0-44.55Z" transform="translate(-5.73 -7.06)"/>
    <path class="cls-2" d="M29.43,138.29a22.21,22.21,0,0,0-14.19,5.11L11.12,148a20.87,20.87,0,0,0,12.59,34.69c1.22.08,2.49.14,3.81.17A20.85,20.85,0,0,0,42.1,176l34.05-37.67Z" transform="translate(-5.73 -7.06)"/>
    <path class="cls-3" d="M121,62.61C121,34.83,101.6,7.06,60.67,7.06,34.28,7.06,16.62,24,10.9,32,3.76,42,8,56.69,17,62.9c8.45,5.83,20.84,6,31-6.08C51.77,52.25,56.75,49,62.52,49a17.14,17.14,0,0,1,9.15,2.7C79,56.26,82.1,68.24,74.87,76.28L29.68,127.42l-14.44,16a22.21,22.21,0,0,1,14.19-5.11H76.15l18.5-20.41C111.78,99.4,121,84.48,121,62.61Z" transform="translate(-5.73 -7.06)"/>
  </g>
</svg>
