<svg id="Layer_1" data-name="Layer 1" viewBox="0 0 76.7 174.29">
  <defs>
    <style>
      .cls-1 {
        fill: #6b66c4;
      }

      .cls-2 {
        fill: #ff6fbc;
      }

      .cls-3 {
        fill: #5ecaeb;
      }
    </style>
  </defs>
  <title>numstockOne</title>
  <g>
    <path class="cls-1" d="M95.56,58a22.14,22.14,0,0,0,6.16-15.59c0,.08,0,.15,0,.23a22.21,22.21,0,0,0-44.43,0V96.12a22.27,22.27,0,0,0,6-4.44Z" transform="translate(-25.02 -20.4)"/>
    <path class="cls-2" d="M57.3,42.61a22.14,22.14,0,0,1,6.33-15.52l-.16.16L31.19,61A22.22,22.22,0,0,0,57.3,96.12Z" transform="translate(-25.02 -20.4)"/>
    <path class="cls-3" d="M101.72,42.38A22.14,22.14,0,0,1,95.56,58L63.28,91.68a22.27,22.27,0,0,1-6,4.44v76.35a22.21,22.21,0,1,0,44.43,0V42.61C101.72,42.53,101.72,42.46,101.72,42.38Z" transform="translate(-25.02 -20.4)"/>
  </g>
</svg>
