<svg id="Layer_1" data-name="Layer 1" xmlns="http://www.w3.org/2000/svg" viewBox="0 0 122.57 178.4">
  <defs>
    <style>
      .cls-1 {
        fill: #ff6fbc;
      }

      .cls-2 {
        fill: #5ecaeb;
      }

      .cls-3 {
        fill: #6b66c4;
      }
    </style>
  </defs>
  <title>numstock3</title>
  <g>
    <path class="cls-1" d="M110.12,89.38l.83.86a54.86,54.86,0,0,0,8.84-29.36A51.09,51.09,0,0,0,102,22,58.06,58.06,0,0,0,63.65,7.82c-16.31,0-31.31,5.43-42.23,15.28a54.87,54.87,0,0,0-7,7.59,21.53,21.53,0,1,0,34.31,26,11.88,11.88,0,0,1,1.51-1.64c1.09-1,5.28-4.2,13.39-4.2,6.42,0,13.07,4.08,13.07,10.68,0,7.74-6.37,11.71-9.81,11.81H67C84.31,73.38,100,79.31,110.12,89.38Z" transform="translate(-4.14 -7.82)"/>
    <path class="cls-2" d="M110.95,90.24a51.64,51.64,0,0,1-44.17,24.15c5.61,0,10.22,1.45,13.15,4.33a12.77,12.77,0,0,1,3.72,9.35c0,9.68-9.78,14.92-19.43,15.08-9.84.17-16.75-5-19-9.89A21.53,21.53,0,0,0,6.13,151.34c9.85,21.28,32.37,34.87,57.62,34.87h1.19c16.25-.28,31.44-6,42.78-16.09a55.65,55.65,0,0,0,19-42C126.71,113.16,121,100.67,110.95,90.24Z" transform="translate(-4.14 -7.82)"/>
    <path class="cls-3" d="M110.95,90.24l-.83-.86C100,79.31,84.31,73.38,67,73.38h-.26c-11.89,0-21.53,8.27-21.53,20.16s9.64,20.85,21.53,20.85A51.64,51.64,0,0,0,110.95,90.24Z" transform="translate(-4.14 -7.82)"/>
  </g>
</svg>
